<?xml version="1.0" standalone="no"?>
<svg version="1.1" id="Layer_1" xmlns="http://www.w3.org/2000/svg" xmlns:xlink="http://www.w3.org/1999/xlink" x="0px" y="0px" width="595.28px" height="595.28px" viewBox="0 0 595.28 595.28" enable-background="new 0 0 595.28 595.28" xml:space="preserve">
<path id="color_x5F_7" fill="#FECC81" d="M298.547,197.696v10.535c0,0.652-0.529,1.18-1.182,1.18s-1.182-0.527-1.182-1.18v-10.535
	c0-0.652,0.529-1.182,1.182-1.182S298.547,197.044,298.547,197.696z M297.365,228.104c-0.652,0-1.182,0.527-1.182,1.182v10.531
	c0,0.652,0.529,1.182,1.182,1.182s1.182-0.529,1.182-1.182v-10.531C298.547,228.632,298.018,228.104,297.365,228.104z
	 M318.426,217.575h-10.533c-0.652,0-1.182,0.529-1.182,1.182c0,0.654,0.529,1.184,1.182,1.184h10.533
	c0.652,0,1.182-0.529,1.182-1.184C319.607,218.104,319.078,217.575,318.426,217.575z M288.02,218.757
	c0-0.652-0.529-1.182-1.182-1.182h-10.533c-0.652,0-1.182,0.529-1.182,1.182c0,0.654,0.529,1.184,1.182,1.184h10.533
	C287.49,219.94,288.02,219.411,288.02,218.757z M305.645,212.149l7.447-7.449c0.463-0.461,0.463-1.209,0-1.67
	c-0.461-0.463-1.209-0.463-1.67,0l-7.449,7.447c-0.461,0.463-0.461,1.209,0,1.672C304.436,212.61,305.184,212.61,305.645,212.149z
	 M289.086,225.366l-7.447,7.445c-0.461,0.465-0.461,1.211,0,1.674c0.461,0.461,1.209,0.461,1.67,0l7.449-7.449
	c0.461-0.461,0.461-1.209,0-1.67C290.295,224.905,289.547,224.905,289.086,225.366z M305.645,225.366
	c-0.461-0.461-1.209-0.461-1.672,0c-0.461,0.461-0.461,1.209,0,1.67l7.449,7.449c0.461,0.461,1.209,0.461,1.67,0
	c0.463-0.463,0.463-1.209,0-1.674L305.645,225.366z M283.309,203.03c-0.461-0.463-1.209-0.463-1.67,0
	c-0.461,0.461-0.461,1.209,0,1.67l7.447,7.449c0.461,0.461,1.209,0.461,1.672,0c0.461-0.463,0.461-1.209,0-1.672L283.309,203.03z
	 M119.911,237.972c-0.652,0-1.182,0.529-1.182,1.182v10.535c0,0.652,0.529,1.18,1.182,1.18s1.182-0.527,1.182-1.18v-10.535
	C121.093,238.501,120.563,237.972,119.911,237.972z M119.911,269.562c-0.652,0-1.182,0.527-1.182,1.182v10.531
	c0,0.652,0.529,1.182,1.182,1.182s1.182-0.529,1.182-1.182v-10.531C121.093,270.089,120.563,269.562,119.911,269.562z
	 M140.972,259.032h-10.533c-0.652,0-1.182,0.529-1.182,1.182c0,0.654,0.529,1.184,1.182,1.184h10.533
	c0.652,0,1.182-0.529,1.182-1.184C142.153,259.562,141.624,259.032,140.972,259.032z M110.565,260.214
	c0-0.652-0.529-1.182-1.182-1.182H98.851c-0.652,0-1.182,0.529-1.182,1.182c0,0.654,0.529,1.184,1.182,1.184h10.533
	C110.036,261.397,110.565,260.868,110.565,260.214z M128.19,253.606l7.447-7.449c0.463-0.461,0.463-1.209,0-1.67
	c-0.461-0.463-1.209-0.463-1.67,0l-7.449,7.447c-0.461,0.463-0.461,1.209,0,1.672C126.981,254.067,127.729,254.067,128.19,253.606z
	 M111.632,266.823l-7.447,7.445c-0.461,0.465-0.461,1.211,0,1.674c0.461,0.461,1.209,0.461,1.67,0l7.449-7.449
	c0.461-0.461,0.461-1.209,0-1.67C112.841,266.362,112.093,266.362,111.632,266.823z M128.19,266.823
	c-0.461-0.461-1.209-0.461-1.672,0c-0.461,0.461-0.461,1.209,0,1.67l7.449,7.449c0.461,0.461,1.209,0.461,1.67,0
	c0.463-0.463,0.463-1.209,0-1.674L128.19,266.823z M105.854,244.487c-0.461-0.463-1.209-0.463-1.67,0
	c-0.461,0.461-0.461,1.209,0,1.67l7.447,7.449c0.461,0.461,1.209,0.461,1.672,0c0.461-0.463,0.461-1.209,0-1.672L105.854,244.487z
	 M502.153,273.271c-0.652,0-1.182,0.529-1.182,1.182v10.535c0,0.652,0.529,1.18,1.182,1.18s1.182-0.527,1.182-1.18v-10.535
	C503.335,273.8,502.806,273.271,502.153,273.271z M502.153,304.86c-0.652,0-1.182,0.527-1.182,1.182v10.531
	c0,0.652,0.529,1.182,1.182,1.182s1.182-0.529,1.182-1.182v-10.531C503.335,305.388,502.806,304.86,502.153,304.86z
	 M523.214,294.331h-10.533c-0.652,0-1.182,0.529-1.182,1.182c0,0.654,0.529,1.184,1.182,1.184h10.533
	c0.652,0,1.182-0.529,1.182-1.184C524.396,294.86,523.866,294.331,523.214,294.331z M492.808,295.513
	c0-0.652-0.529-1.182-1.182-1.182h-10.533c-0.652,0-1.182,0.529-1.182,1.182c0,0.654,0.529,1.184,1.182,1.184h10.533
	C492.278,296.696,492.808,296.167,492.808,295.513z M510.433,288.905l7.447-7.449c0.463-0.461,0.463-1.209,0-1.67
	c-0.461-0.463-1.209-0.463-1.67,0l-7.449,7.447c-0.461,0.463-0.461,1.209,0,1.672C509.224,289.366,509.972,289.366,510.433,288.905z
	 M493.874,302.122l-7.447,7.445c-0.461,0.465-0.461,1.211,0,1.674c0.461,0.461,1.209,0.461,1.67,0l7.449-7.449
	c0.461-0.461,0.461-1.209,0-1.67C495.083,301.661,494.335,301.661,493.874,302.122z M510.433,302.122
	c-0.461-0.461-1.209-0.461-1.672,0c-0.461,0.461-0.461,1.209,0,1.67l7.449,7.449c0.461,0.461,1.209,0.461,1.67,0
	c0.463-0.463,0.463-1.209,0-1.674L510.433,302.122z M488.097,279.786c-0.461-0.463-1.209-0.463-1.67,0
	c-0.461,0.461-0.461,1.209,0,1.67l7.447,7.449c0.461,0.461,1.209,0.461,1.672,0c0.461-0.463,0.461-1.209,0-1.672L488.097,279.786z"></path>
<path id="color_x5F_6" fill="#C5CECB" d="M163.945,377.54c-1.564-2.677-2.948-5.455-4.641-8.052
	c0.521-1.023,1.881-3.785,3.501-7.766C163.292,366.987,163.683,372.26,163.945,377.54z M167.737,377.4
	c0.199-0.748,1.342-0.382,1.144,0.364c-0.681,2.546-2.083,4.763-3.354,7.042c-0.028,0.053-0.067,0.08-0.104,0.119
	c0.151,5.483,0.171,10.972,0.012,16.46c1.576-1.281,3.418-3.056,5.051-5.302c-0.026-0.333-0.051-0.665-0.071-0.996
	c-0.473-7.869,0.861-13.461,2.951-17.447c-0.13-1.496-0.286-3.231-0.466-5.135c-2.365-9.817-3.374-9.165-3.054-18.967
	c0.067-2.068,0.12-4.119,0.12-6.097c-0.07-0.476-0.14-0.95-0.211-1.42c-0.056-0.367-0.112-0.729-0.169-1.093
	c-0.056-0.357-0.111-0.717-0.168-1.071c-0.12-0.747-0.241-1.485-0.365-2.212c-0.144,0.674-0.295,1.34-0.449,2.001
	c-0.036,0.153-0.071,0.307-0.108,0.459c-0.315,1.327-0.65,2.623-1,3.887c-0.033,0.12-0.066,0.241-0.101,0.361
	c-0.177,0.633-0.356,1.259-0.54,1.874c-0.001,0.004-0.003,0.008-0.004,0.013c-0.993,3.329-2.059,6.371-3.074,9.021
	c0.769,7.783,1.32,15.588,1.585,23.403C166.314,380.982,167.232,379.289,167.737,377.4z M120.853,372.229
	c3.533,8.913,10.744,12.295,16.38,13.555c0.261-1.067,0.569-2.063,0.917-2.994c-2.252-3.377-4.428-6.803-6.545-10.266
	c-0.049-0.012-0.099-0.016-0.148-0.043c-2.307-1.222-4.691-2.316-6.646-4.082c-0.575-0.521,0.187-1.449,0.761-0.93
	c1.447,1.31,3.141,2.232,4.857,3.125c-5.965-9.918-11.407-20.156-16.455-30.566c-0.338-0.697,0.795-1.102,1.131-0.411
	c4.266,8.797,8.816,17.456,13.723,25.907c-0.178-3.816-0.679-7.611-0.427-11.438c0.051-0.774,1.234-0.563,1.184,0.202
	c-0.258,3.947,0.333,7.869,0.472,11.804c0.014,0.367-0.249,0.578-0.53,0.623c2.925,4.992,5.974,9.911,9.173,14.732
	c0.778-1.742,1.701-3.23,2.722-4.494c0.401-3.156,0.942-7.615,1.482-12.668c-0.317-0.464-0.644-0.93-1.004-1.4
	c-6.604-8.63-15.142-11.464-18.765-21.807c-3.623-10.342-12.583-19.941-18.729-15.598c-6.149,4.344-0.186,13.649,6.411,23.119
	C117.408,358.071,114.573,356.39,120.853,372.229z M147.743,403.3l-1.405,4.526c1.89,0.357,3.777,0.731,5.659,1.137
	C151.067,407.263,149.679,405.188,147.743,403.3z M251.419,433.678c0.091,0.33,0.186,0.658,0.258,0.995H106.181
	c1.661-7.731,8.428-13.604,16.662-14.002c0.296-0.014,0.591-0.022,0.893-0.022c0.909,0,1.796,0.074,2.668,0.205
	c2.913,0.432,5.593,1.555,7.876,3.191c-0.224-0.904-0.352-1.852-0.352-2.829c0-1.17,0.177-2.298,0.491-3.368
	c-0.188-0.046-0.368-0.078-0.561-0.129c-9.002-2.398-14.049-8.234-23.428-7.708c-9.382,0.521-19.926-3.427-18.503-9.723
	c1.427-6.293,10.753-4.623,20.418-2.505c9.667,2.117,7.404,0.422,22.011,0.199c0.691-0.011,1.355,0.02,2.004,0.073
	c0.151,2.595,0.457,5.139,0.849,7.55c-1.438-1.211-2.877-2.418-4.588-3.232c-0.6-0.283-1.089,0.624-0.487,0.912
	c1.515,0.717,2.799,1.753,4.067,2.819c-9.81-1.47-19.704-2.423-29.61-3.004c-0.66-0.039-0.609,0.988,0.048,1.028
	c8.366,0.49,16.72,1.258,25.021,2.371c-3.081,1.111-6.248,1.961-9.199,3.413c-0.598,0.294-0.041,1.165,0.549,0.873
	c3.039-1.5,6.34-2.317,9.507-3.503c0.294-0.105,0.374-0.384,0.318-0.622c1.561,0.216,3.12,0.446,4.677,0.688
	c0.289,1.572,0.607,3.074,0.938,4.481c0.622,2.645,1.28,4.955,1.843,6.758c0.644,2.064,1.157,3.463,1.342,3.949l-1.313-1.198
	l-2.211,12.339h15.723l-12.095-11.045l1.319-4.248l2.879-9.269l0.092-0.297c2.197,0.415,4.392,0.851,6.577,1.329
	c0.188,0.391,0.337,0.729,0.467,1.035c0.401,0.268,0.784,0.561,1.149,0.872c1.263,0.37,2.515,0.774,3.757,1.207
	c0.225-0.799,0.52-1.567,0.855-2.313c-3.379-4.824-6.054-10.068-8.703-15.343l0.899-2.896c2.774,5.505,5.499,11.027,8.938,16.112
	c0.795-1.248,1.749-2.386,2.837-3.385c-0.082-0.651-0.179-1.305-0.328-1.934c-0.465,0.285-0.74,0.433-0.74,0.433
	s-7.876-3.423-9.849-13.991l5.968-19.218l0.585-0.381c1.735,2.692,3.134,5.591,4.783,8.341c0.186,0.314,0.523,0.348,0.783,0.231
	c0.35,7.685,0.444,15.379,0.199,23.072c0.192,0.65,0.331,1.325,0.444,1.993c1.903-1.316,4.083-2.27,6.448-2.729
	c1.583,10.081,5.084,19.367,5.783,21.159l-2.018,11.263h15.722l-13.348-12.188l3.799-20.379c0.788-0.111,1.593-0.173,2.412-0.173
	c8.917,0,16.228,6.758,16.982,15.362c1.918-4.237,6.21-7.197,11.217-7.197c6.778,0,12.276,5.427,12.276,12.113
	c0,0.978-0.128,1.925-0.349,2.829c1.733-1.242,3.696-2.188,5.815-2.76v12.393H251.419z M157.551,415.352
	c-0.259-0.092-0.518-0.185-0.776-0.273c0.235,0.395,0.456,0.8,0.646,1.222C157.449,415.979,157.505,415.667,157.551,415.352z
	 M423.833,386.703c-0.145,2.405-0.455,5.391-0.863,8.659c1.748,2.594,3.816,4.607,5.558,6.023c-0.159-5.488-0.14-10.977,0.012-16.46
	c-0.037-0.039-0.076-0.066-0.104-0.119c-1.271-2.279-2.673-4.496-3.354-7.042c-0.198-0.746,0.944-1.112,1.144-0.364
	c0.505,1.889,1.423,3.582,2.376,5.266c0.342-10.113,1.157-20.211,2.314-30.264c-1.809-4.573-3.854-10.523-5.378-17.162
	c-1.716,4.342-1.653,11.227-1.421,18.299c0.299,9.148-0.561,9.193-2.6,17.139C423.228,374.526,424.255,379.7,423.833,386.703z
	 M457.047,378.702c2.551-3.941,5.017-7.937,7.39-11.987c-0.281-0.045-0.544-0.256-0.53-0.623c0.139-3.935,0.729-7.856,0.472-11.804
	c-0.051-0.765,1.133-0.977,1.184-0.202c0.252,3.826-0.249,7.621-0.427,11.438c4.906-8.451,9.457-17.11,13.723-25.907
	c0.336-0.69,1.469-0.286,1.131,0.411c-5.048,10.41-10.49,20.648-16.455,30.566c1.717-0.893,3.41-1.815,4.857-3.125
	c0.574-0.52,1.336,0.409,0.761,0.93c-1.954,1.766-4.339,2.86-6.646,4.082c-0.05,0.027-0.1,0.031-0.148,0.043
	c-1.632,2.668-3.303,5.312-5.011,7.931c0.225,1.563,0.362,3.249,0.391,5.081c5.463-1.433,12.046-4.916,15.372-13.307
	c6.279-15.839,3.444-14.157,10.037-23.629c6.597-9.47,12.561-18.775,6.411-23.119c-6.146-4.344-15.106,5.256-18.729,15.598
	c-3.623,10.343-12.161,13.177-18.765,21.807c-0.049,0.064-0.088,0.126-0.137,0.189c0.253,2.141,0.489,4.05,0.689,5.627
	C454.573,371.124,456.181,374.368,457.047,378.702z M460.104,417.719c-0.192,0.051-0.372,0.083-0.561,0.129
	c0.313,1.07,0.491,2.198,0.491,3.368c0,0.978-0.128,1.925-0.352,2.829c2.283-1.637,4.963-2.76,7.876-3.191
	c0.872-0.131,1.759-0.205,2.668-0.205c0.302,0,0.597,0.009,0.893,0.022c8.234,0.397,15.001,6.271,16.662,14.002H342.285
	c0.072-0.337,0.167-0.665,0.259-0.995h23.343v-11.979c1.618,0.574,3.13,1.365,4.497,2.346c-0.221-0.904-0.349-1.852-0.349-2.829
	c0-6.687,5.498-12.113,12.276-12.113c5.007,0,9.299,2.96,11.217,7.197c0.755-8.604,8.065-15.362,16.982-15.362
	c0.88,0,1.74,0.074,2.584,0.201l3.197,22.47l-17.043,10.069h19.771l-1.316-5.356c0.881-4.826,2.972-16.554,4.487-27.165
	c2.62,0.402,5.037,1.39,7.118,2.828c0.113-0.668,0.252-1.343,0.444-1.993c-0.245-7.693-0.15-15.388,0.199-23.072
	c0.26,0.116,0.598,0.083,0.783-0.231c2.027-3.38,3.667-6.99,6.031-10.159c0.46-0.615-0.423-1.438-0.882-0.815
	c-2.297,3.072-3.941,6.53-5.869,9.827c0.379-7.62,1.012-15.226,1.845-22.812c1.833,4.377,3.229,7.006,3.229,7.006l1.209,0.785
	l5.943,26.382c-1.627,11.39-10.02,15.035-10.02,15.035s-0.275-0.147-0.74-0.433c-0.149,0.629-0.246,1.282-0.328,1.934
	c1.088,0.999,2.042,2.137,2.837,3.385c3.488-5.157,6.241-10.764,9.057-16.348l0.729,3.236c-2.632,5.239-5.294,10.446-8.65,15.238
	c0.336,0.746,0.631,1.515,0.855,2.313c1.242-0.433,2.494-0.837,3.757-1.207c0.365-0.312,0.748-0.604,1.149-0.872
	c0.13-0.307,0.278-0.645,0.467-1.035c1.804-0.396,3.612-0.764,5.424-1.115l0.023,0.106l1.985,8.814l1.637,7.263l-14.32,8.461h16.227
	h3.545l-2.199-8.952c0.271-1.866,0.564-3.938,0.868-6.145c0.298-2.168,0.604-4.456,0.903-6.798c0.185-1.442,0.365-2.902,0.541-4.363
	c1.711-0.268,3.423-0.521,5.138-0.759c-0.056,0.238,0.024,0.517,0.318,0.622c3.167,1.186,6.468,2.003,9.507,3.503
	c0.59,0.292,1.146-0.579,0.549-0.873c-2.951-1.452-6.118-2.302-9.199-3.413c8.302-1.113,16.655-1.881,25.021-2.371
	c0.657-0.04,0.708-1.067,0.048-1.028c-9.906,0.581-19.801,1.534-29.61,3.004c1.269-1.066,2.553-2.103,4.067-2.819
	c0.602-0.288,0.112-1.195-0.487-0.912c-1.952,0.929-3.549,2.369-5.195,3.741c0.32-2.719,0.614-5.419,0.861-7.989
	c0.833-0.095,1.689-0.156,2.599-0.143c14.606,0.223,12.344,1.918,22.011-0.199c9.665-2.118,18.991-3.788,20.418,2.505
	c1.423,6.296-9.121,10.243-18.503,9.723C474.152,409.484,469.105,415.32,460.104,417.719z M436.411,415.352
	c0.047,0.315,0.102,0.628,0.13,0.948c0.19-0.422,0.411-0.827,0.647-1.222C436.929,415.167,436.67,415.26,436.411,415.352z
	 M446.554,408.031l-0.93-4.127c-1.627,1.719-2.828,3.539-3.659,5.059C443.491,408.635,445.021,408.328,446.554,408.031z"></path>
<path id="color_x5F_5" fill="#FFD2BB" d="M196.166,214.326c-3.242,1.934-3.846,3.742-4.175,4.837
	c-0.273,0.913-0.85,2.087-1.035,2.456c-0.037,0.074-0.064,0.127-0.064,0.127s0.003-0.06,0.007-0.144
	c0.04-0.86,0.202-5.655-1.201-5.323c-2.55,0.6-4.762,8.707-4.762,8.707c0.05,0.294,0.137,0.578,0.208,0.866l-3.947,13.155
	l0.327-0.08c0.435,3.01,2.345,5.763,6.147,6.903c3.802,1.142,6.911-0.106,8.931-2.38l0.3,0.443l2.35-7.835
	c5.054,0.612,7.084-3.91,8.796-9.616l2.055-6.848c0.226-0.752,0.368-1.508,0.442-2.26l-13.329-4
	C196.935,213.731,196.592,214.072,196.166,214.326z M205.146,221.926c0.129-0.66,0.567-1.131,0.972-1.057
	c0.408,0.076,0.629,0.672,0.5,1.328c-0.133,0.662-0.568,1.135-0.972,1.059C205.238,223.18,205.02,222.584,205.146,221.926z
	 M197.924,218.41c0.407,0.076,0.629,0.672,0.501,1.328c-0.134,0.662-0.569,1.135-0.972,1.059c-0.408-0.075-0.629-0.672-0.5-1.328
	C197.082,218.809,197.521,218.336,197.924,218.41z M246.66,287.82c0.134,0.919,0.08,1.879-0.204,2.827
	c-1.044,3.478-4.708,5.451-8.187,4.407c-1.136-0.341-2.107-0.965-2.87-1.767c-1.359-1.431-2.035-3.436-1.74-5.468
	c0.047-0.317,0.108-0.635,0.203-0.951c0.225-0.748,0.576-1.422,1.016-2.016c1.603-2.166,4.441-3.212,7.171-2.393
	C244.578,283.22,246.305,285.367,246.66,287.82z M386.134,201.932c-0.005,0.002-0.024,0.007-0.024,0.007l0.022-0.026
	C386.133,201.918,386.134,201.926,386.134,201.932z M380.379,223.684c2.516,4.782,5.414,7.902,10.584,5.459l2.475-1.17l3.245,6.865
	l3.372-1.501l6.602-2.939l0.855-0.381c0.024-0.012,0.052-0.018,0.076-0.028l-5.855-12.387c0.027-0.293,0.07-0.584,0.075-0.879
	c0,0-2.272-5.134-4.521-7.092c-0.491-0.428-0.98-0.711-1.445-0.748c-1.427-0.117-0.558,4.568-0.392,5.405
	c0.017,0.081,0.028,0.14,0.028,0.14s-0.034-0.048-0.081-0.115c-0.236-0.334-0.977-1.402-1.381-2.259
	c-0.485-1.024-1.346-2.71-4.813-4.127c-0.356-0.146-0.663-0.36-0.944-0.607c-1.33,1.21-2.978,2.464-4.625,3.622
	c-0.18,0.127-0.359,0.252-0.539,0.376c-2.969,2.053-5.807,3.734-6.62,4.209l2.863,6.06
	C379.681,222.311,380.026,223.014,380.379,223.684z M387.791,213.575c-0.226-0.625-0.099-1.243,0.293-1.379
	c0.384-0.135,0.885,0.265,1.109,0.894c0.21,0.589,0.103,1.154-0.234,1.335c-0.021,0.012-0.035,0.036-0.059,0.045
	c-0.354,0.122-0.8-0.218-1.044-0.767C387.836,213.658,387.808,213.623,387.791,213.575z M380.405,215.827
	c0.386-0.136,0.888,0.264,1.111,0.893c0.22,0.626,0.096,1.244-0.293,1.38c-0.386,0.133-0.885-0.265-1.112-0.895
	C379.886,216.58,380.015,215.962,380.405,215.827z M380.796,287.68c-0.509,0.763-1.129,1.234-1.771,1.226
	c-3.449-0.048-11.107-3.354-18.072-7.567c3.212-0.582,6.193-1.826,8.791-3.594c1.528-1.039,2.924-2.258,4.158-3.625
	c2.313,0.874,4.26,1.739,5.115,2.434C382.886,279.691,382.429,285.232,380.796,287.68z M411.692,278.905
	c-2.542-0.035-7.373-1.843-12.525-4.476c-3.598-1.839-7.348-4.08-10.592-6.406c-2.885-2.068-5.37-4.203-6.977-6.18
	c-0.699-0.035-1.438-0.073-1.979-0.101c-0.47-0.023-0.794-0.04-0.795-0.039c-0.054,0.03-0.102,0.061-0.159,0.088
	c-0.383,0.191-0.855,0.322-1.385,0.409c-0.445,0.074-1.001,0.008-1.588-0.145c-1.449-0.377-3.102-1.335-3.847-2.411
	c-1.28-1.848,1.702-7.942,1.87-7.962c0.085-0.009,1.21-0.424,1.307-0.422c0.341,0.011,2.295-0.222,3.857,0.928
	c0.061,0.045,0.119,0.096,0.179,0.146c0.611,0.504,1.149,1.231,1.481,2.304c0.046,0.028,0.086,0.058,0.132,0.086
	c0.045-0.04,0.087-0.074,0.116-0.099c0.024-0.022,1.072,1.139,2.233,2.415c4.085,0.471,10.472,2.876,10.472,2.876
	s15.304,4.29,18.191,6.636C416.761,270.67,414.396,278.94,411.692,278.905z"></path>
<path id="color_x5F_4" fill="#00CEC9" d="M177.24,421.489l13.348,12.188h-15.722l2.018-11.263l0.192-1.076L177.24,421.489z
	 M141.635,422.537l-1.313-1.198l-2.211,12.339h15.723l-12.095-11.045L141.635,422.537z M191.157,202.588
	c-1.629,0.626-2.28,1.201-2.474,1.672c-0.539,0.415-1.087,0.923-1.648,1.563c0,0-3.662,5.616-3.634,13.425
	c0.014,3.723,1.242,4,1.534,5.738c0,0,2.212-8.107,4.762-8.707c1.403-0.332,1.241,4.463,1.201,5.323
	c-0.004,0.084-0.007,0.144-0.007,0.144s0.027-0.053,0.064-0.127c0.186-0.369,0.762-1.543,1.035-2.456
	c0.329-1.095,0.933-2.903,4.175-4.837c0.426-0.254,0.769-0.595,1.049-0.99l13.329,4h0.002c0,0,1.429-2.934,0.472-6.701
	C209.877,206.148,198.855,199.631,191.157,202.588z M396.683,234.838l-9.153,4.075l0.062,0.169c-2.6,0.539-5.691,3.286-7.016,7.148
	c-5.058-2.104-6.434-5.163-6.97-7.279c-1.646-6.482,3.57-11.662,6.773-15.268c2.516,4.782,5.414,7.902,10.584,5.459l2.475-1.17
	L396.683,234.838z M387.587,239.079l-0.014-0.026C387.532,239.083,387.536,239.091,387.587,239.079z M473.683,279.505
	c-6.14,9.513-23.405,23.871-23.405,23.871l-0.618-0.062c-1.68-9.732-6.326-19.535-7.95-22.759l0.1-0.047
	c-0.079-0.073-0.151-0.138-0.229-0.21c-0.278-0.547-0.443-0.854-0.443-0.854l-0.32,0.157c-1.612-1.461-3.073-2.698-4.197-3.614
	c-2.78-3.147-5.191-6.246-6.119-8.411c-0.098-0.227-0.218-0.564-0.358-0.993c-0.216-0.656-0.481-1.538-0.79-2.586
	c-2.083-7.083-6.133-21.933-10.252-29.044c-0.702-1.212-1.406-2.205-2.102-2.89c-0.369-0.361-0.734-0.645-1.098-0.826
	c-2.602-1.875-5.688-2.453-8.312-1.25l-5.855-12.387c0.027-0.293,0.07-0.584,0.075-0.879c0,0-2.272-5.134-4.521-7.092
	c-0.491-0.428-0.98-0.711-1.445-0.748c-1.427-0.117-0.558,4.568-0.392,5.405c0.017,0.081,0.028,0.14,0.028,0.14
	s-0.034-0.048-0.081-0.115c-0.236-0.334-0.977-1.402-1.381-2.259c-0.485-1.024-1.346-2.71-4.813-4.127
	c-0.356-0.146-0.663-0.36-0.944-0.607c-1.33,1.21-2.978,2.464-4.625,3.622c-0.18,0.127-0.359,0.252-0.539,0.376
	c-2.969,2.053-5.807,3.734-6.62,4.209c-0.149,0.088-0.238,0.139-0.238,0.139s-7.695-1.843-2.996-11.221
	c1.552-3.095,10.475-6.037,14.996-7.354c2.519-1.337,5.156-1.828,8.667,1.135c0,0,1.956,2.207,3.6,5.934
	c1.298,1.336,3.3,2.65,6.377,3.204c3.934,0.708,14.26-2.249,19.262,4.542c0.932,1.268,1.963,3.187,1.876,6.121l0.447-0.57
	c0,0-2.047,9.094,5.248,10.405c3.935,0.708,14.262-2.249,19.262,4.542c1.717,2.329,3.784,6.844-1.433,15.871
	c-0.232,2.623-0.009,7.97,5.456,8.954c3.934,0.706,14.261-2.25,19.261,4.541C478.089,264.255,480.319,269.225,473.683,279.505z
	 M386.134,201.932c0-0.006-0.001-0.014-0.002-0.02l-0.022,0.026C386.109,201.938,386.129,201.934,386.134,201.932z M416.515,423.477
	l-0.223,0.132l-17.043,10.069h19.771l-1.316-5.356L416.515,423.477z M453.37,423.477l-2.945,1.74l-14.32,8.461h16.227h3.545
	l-2.199-8.952L453.37,423.477z"></path>
<path id="color_x5F_3" fill="#E84393" d="M235.399,293.288c-8.141,2.61-20.517,3.301-27.198,2.14
	c-0.403,0.233-0.87,0.287-1.413,0.101c-0.713-0.243-1.423-0.647-2.129-1.165c-0.015-0.008-0.033-0.016-0.048-0.023
	c-0.04-0.022-0.065-0.066-0.103-0.094c-2.456-1.866-4.842-5.257-6.98-9.423l-8,38.178l-0.368,1.758l-44.809-10.467l-0.021-0.005
	l-0.837-0.195l23.126-66.175c1.766-5.885,6.931-9.542,11.54-8.159l3.037-0.75l0.327-0.08c0.435,3.01,2.345,5.763,6.147,6.903
	c3.802,1.142,6.911-0.106,8.931-2.38l0.3,0.443l1.258,1.863c2.546,0.764,4.381,2.911,5.028,6.313
	c0.301,0.457,0.584,0.94,0.841,1.459c2.26,4.559,6.112,21.964,6.112,21.964s0.3,3.048,0.391,6.772
	c0.315-0.126,0.634-0.245,0.97-0.331c2.287-0.585,8.936,0.408,13.653,1.247c2.885,0.513,5.049,0.968,5.049,0.968
	s2.152,0.228,4.675,0.704c-0.439,0.594-0.791,1.268-1.016,2.016c-0.095,0.316-0.156,0.634-0.203,0.951
	C233.364,289.853,234.04,291.857,235.399,293.288z M381.599,261.844c-0.699-0.035-1.438-0.073-1.979-0.101
	c-0.622,4.729-2.675,9.005-5.718,12.376c2.313,0.874,4.26,1.739,5.115,2.434c3.869,3.139,3.412,8.68,1.779,11.127
	c3.01-2.907,6.979-11.879,7.779-19.656C385.69,265.955,383.205,263.82,381.599,261.844z M441.579,280.299
	c-0.26-0.239-0.512-0.468-0.764-0.696c-1.612-1.461-3.073-2.698-4.197-3.614c-2.78-3.147-5.191-6.246-6.119-8.411
	c-0.098-0.227-0.218-0.564-0.358-0.993c-0.216-0.656-0.481-1.538-0.79-2.586c-2.083-7.083-6.133-21.933-10.252-29.044
	c-0.702-1.212-1.406-2.205-2.102-2.89c-0.369-0.361-0.734-0.645-1.098-0.826c-2.602-1.875-5.688-2.453-8.312-1.25
	c-0.024,0.011-0.052,0.017-0.076,0.028l-0.855,0.381l-6.602,2.939l-3.372,1.501l-9.153,4.075l0.062,0.169
	c-2.6,0.539-5.691,3.286-7.016,7.148c-0.268,0.78-0.469,1.602-0.572,2.465c-0.084,0.704-0.43,1.99-0.944,3.64
	c0.611,0.504,1.149,1.231,1.481,2.304c0.046,0.028,0.086,0.058,0.132,0.086c0.045-0.04,0.087-0.074,0.116-0.099
	c0.024-0.022,1.072,1.139,2.233,2.415c4.085,0.471,10.472,2.876,10.472,2.876s15.304,4.29,18.191,6.636
	c5.076,4.117,2.712,12.388,0.008,12.353c-2.542-0.035-7.373-1.843-12.525-4.476c3.342,3.601,6.328,7.1,7.182,8.827
	c0.966,1.956,1.937,5.183,2.799,8.589c0.311,1.223,0.607,2.466,0.884,3.685l15.844-7.489l15.834-7.485l0.1-0.047
	C441.729,280.436,441.657,280.371,441.579,280.299z"></path>
<path id="color_x5F_2" fill="#FBC02D" d="M190.526,336.584c0.049,1.17,0.076,2.33,0.086,3.476c0,0.093,0,0.185,0,0.277
	c0.007,1.067-0.003,2.121-0.026,3.159c-0.002,0.106-0.005,0.213-0.008,0.318c-0.026,1.043-0.065,2.069-0.118,3.075
	c-0.003,0.072-0.006,0.146-0.01,0.217c-0.051,0.944-0.113,1.865-0.182,2.771c-0.01,0.118-0.016,0.245-0.024,0.363h-0.005
	c-0.846,10.743-2.824,18.5-2.824,18.5l-0.431,0.468l-5.945,31.901l-3.799,20.379l-0.164-0.15l-0.192,1.076
	c-0.699-1.792-4.2-11.078-5.783-21.159c-0.269-1.713-0.48-3.447-0.615-5.172c-0.026-0.333-0.051-0.665-0.071-0.996
	c-0.473-7.869,0.861-13.461,2.951-17.447c-0.13-1.496-0.286-3.231-0.466-5.135c-0.598-6.328-1.467-14.563-2.563-22.473
	c-0.087-0.623-0.175-1.246-0.264-1.865c-0.022-0.158-0.046-0.316-0.069-0.475c-0.013-0.084-0.025-0.167-0.037-0.251
	c-0.07-0.476-0.14-0.95-0.211-1.42c-0.056-0.367-0.112-0.729-0.169-1.093c-0.056-0.357-0.111-0.717-0.168-1.071
	c-0.12-0.747-0.241-1.485-0.365-2.212c-0.144,0.674-0.295,1.34-0.449,2.001c-0.036,0.153-0.071,0.307-0.108,0.459
	c-0.315,1.327-0.65,2.623-1,3.887c-0.033,0.12-0.066,0.241-0.101,0.361c-0.177,0.633-0.356,1.259-0.54,1.874
	c-0.001,0.004-0.003,0.008-0.004,0.013c-0.993,3.329-2.059,6.371-3.074,9.021c-0.33,0.861-0.655,1.686-0.971,2.46
	c-1.62,3.98-2.98,6.742-3.501,7.766c-0.146,0.289-0.23,0.447-0.23,0.447l-0.632,0.411l-0.585,0.381l-5.968,19.218l-0.858,2.765
	l-0.899,2.896l-2.389,7.693l-1.405,4.526l-0.309,0.993l-0.092,0.297l-2.879,9.269l-1.319,4.248l-0.104-0.096
	c-0.185-0.486-0.698-1.885-1.342-3.949c-0.563-1.803-1.221-4.113-1.843-6.758c-0.331-1.407-0.649-2.909-0.938-4.481
	c-0.104-0.573-0.207-1.153-0.303-1.743c-0.392-2.411-0.697-4.955-0.849-7.55c-0.053-0.886-0.087-1.775-0.101-2.669
	c-0.056-3.717,0.309-6.887,0.973-9.604c0.261-1.067,0.569-2.063,0.917-2.994c0.174-0.463,0.356-0.911,0.549-1.342
	c0.778-1.742,1.701-3.23,2.722-4.494c0.401-3.156,0.942-7.615,1.482-12.668c0.469-4.383,0.935-9.213,1.309-14.044
	c0.106-1.366,0.204-2.729,0.293-4.084c0.001-0.009,0.001-0.017,0.002-0.025c0.043-0.657,0.084-1.312,0.122-1.962
	c0.002-0.03,0.004-0.061,0.005-0.09c0.036-0.612,0.069-1.22,0.101-1.824c0.004-0.074,0.008-0.148,0.012-0.223
	c0.029-0.572,0.056-1.14,0.08-1.703c0.004-0.094,0.009-0.188,0.013-0.282c0.022-0.537,0.043-1.068,0.062-1.597
	c0.004-0.116,0.008-0.234,0.012-0.351c0.017-0.497,0.03-0.987,0.042-1.476c0.004-0.141,0.008-0.282,0.011-0.422
	c0.01-0.457,0.018-0.906,0.023-1.354c0.002-0.16,0.005-0.322,0.007-0.482c0.004-0.421,0.005-0.834,0.005-1.244
	c0-0.174,0.001-0.35,0.001-0.521c-0.002-0.39-0.007-0.769-0.013-1.147c-0.002-0.181-0.004-0.365-0.007-0.543
	c-0.007-0.359-0.019-0.706-0.029-1.054c-0.006-0.186-0.01-0.376-0.017-0.558c-0.013-0.325-0.029-0.638-0.046-0.952
	c-0.01-0.19-0.018-0.387-0.028-0.573c-0.019-0.298-0.041-0.582-0.063-0.868c-0.015-0.186-0.026-0.378-0.042-0.559
	c-0.024-0.284-0.054-0.552-0.083-0.823c-0.018-0.166-0.032-0.34-0.051-0.501c-0.034-0.283-0.073-0.548-0.112-0.815
	c-0.019-0.132-0.035-0.273-0.056-0.401c-0.061-0.387-0.127-0.754-0.2-1.102c-0.479-2.282-0.481-4.613-0.159-6.919
	c0.064-0.497,0.145-0.997,0.235-1.499l0.021,0.005l44.809,10.467l0.368-1.758C189.977,327.617,190.347,332.313,190.526,336.584z
	 M457.737,385.535c-0.028-1.832-0.166-3.519-0.391-5.081c-0.088-0.603-0.187-1.188-0.3-1.752c-0.866-4.334-2.474-7.578-4.431-10.001
	c-0.2-1.577-0.437-3.486-0.689-5.627c-1.674-14.178-4.105-38.776-2.123-48.229c0.738-3.518,0.549-7.518-0.145-11.531
	c-1.68-9.732-6.326-19.535-7.95-22.759l-15.834,7.485l-15.844,7.489c-0.276-1.219-0.573-2.462-0.884-3.685
	c-1.661,5.893-5.351,20.794-5.279,36.779c0.074,17.074,3.088,31.924,3.088,31.924l0.428,0.465l5.711,40.125l3.197,22.47l0.223-0.132
	l1.189,4.845c0.881-4.826,2.972-16.554,4.487-27.165c0.284-1.99,0.547-3.937,0.778-5.794c0.408-3.269,0.719-6.254,0.863-8.659
	c0.422-7.003-0.605-12.177-2.316-16.025c-0.197-0.445-0.398-0.883-0.613-1.293c0.715-8.217,2.203-23.557,4.281-35.734
	c0.113,0.534,0.232,1.064,0.353,1.59c1.523,6.639,3.569,12.589,5.378,17.162c0.324,0.821,0.642,1.598,0.946,2.326
	c1.833,4.377,3.229,7.006,3.229,7.006l1.209,0.785l5.943,26.382l0.806,3.573l0.729,3.236l1.847,8.193l0.93,4.127l0.226,1.002
	l0.023,0.106l1.985,8.814l1.637,7.263l2.945-1.74l0.307,1.249c0.271-1.866,0.564-3.938,0.868-6.145
	c0.298-2.168,0.604-4.456,0.903-6.798c0.185-1.442,0.365-2.902,0.541-4.363c0.053-0.436,0.105-0.871,0.156-1.306
	c0.32-2.719,0.614-5.419,0.861-7.989c0.408-4.243,0.688-8.127,0.732-11.125C457.747,386.501,457.744,386.015,457.737,385.535z
	 M441.136,279.445l-0.32,0.157c0.252,0.229,0.504,0.457,0.764,0.696C441.301,279.752,441.136,279.445,441.136,279.445z
	 M388.084,212.196c-0.392,0.136-0.519,0.754-0.293,1.379c0.017,0.048,0.045,0.083,0.065,0.128c0.244,0.549,0.689,0.889,1.044,0.767
	c0.023-0.009,0.037-0.033,0.059-0.045c0.337-0.181,0.444-0.746,0.234-1.335C388.969,212.461,388.468,212.062,388.084,212.196z
	 M380.405,215.827c-0.391,0.135-0.52,0.753-0.294,1.378c0.228,0.63,0.727,1.027,1.112,0.895c0.389-0.136,0.513-0.754,0.293-1.38
	C381.293,216.091,380.791,215.691,380.405,215.827z M197.453,220.797c0.402,0.076,0.838-0.396,0.972-1.059
	c0.128-0.656-0.094-1.252-0.501-1.328c-0.403-0.074-0.842,0.398-0.971,1.059C196.824,220.125,197.045,220.722,197.453,220.797z
	 M205.646,223.256c0.403,0.076,0.839-0.396,0.972-1.059c0.129-0.656-0.092-1.252-0.5-1.328c-0.404-0.074-0.843,0.396-0.972,1.057
	C205.02,222.584,205.238,223.18,205.646,223.256z"></path>
<path id="color_x5F_1" fill="#0984E3" d="M234.878,284.854c1.603-2.166,4.441-3.212,7.171-2.393
	c2.529,0.759,4.256,2.906,4.611,5.359c9.536-2.806,16.499-11.618,16.499-22.063c0-12.703-10.297-23-23-23s-23,10.297-23,23
	c0,6.968,3.102,13.206,7.995,17.424c2.885,0.513,5.049,0.968,5.049,0.968S232.355,284.377,234.878,284.854z M235.416,256.358
	c0.932-0.969,2.329-1.567,4.192-1.797v-2.141h2.729v2.109c1.749,0.114,3.512,0.625,5.287,1.531l-1.568,4.453
	c-1.838-0.979-3.494-1.469-4.971-1.469c-0.703,0-1.197,0.102-1.483,0.305c-0.285,0.203-0.429,0.503-0.429,0.898
	c0,0.344,0.104,0.628,0.311,0.852c0.206,0.225,0.564,0.475,1.074,0.75c0.51,0.276,1.217,0.597,2.123,0.961
	c1.836,0.771,3.154,1.648,3.955,2.633c0.799,0.984,1.199,2.253,1.199,3.806c0,1.75-0.468,3.172-1.404,4.266
	c-0.936,1.094-2.301,1.771-4.094,2.031v3.016h-2.729v-2.922c-1.925-0.104-3.779-0.614-5.563-1.531v-5.188
	c1.02,0.614,2.127,1.127,3.322,1.539c1.195,0.411,2.245,0.617,3.151,0.617c0.746,0,1.294-0.107,1.641-0.32
	c0.348-0.214,0.521-0.57,0.521-1.07c0-0.344-0.126-0.636-0.376-0.875c-0.251-0.24-0.668-0.511-1.253-0.813
	c-0.584-0.303-1.373-0.667-2.366-1.095c-1.116-0.489-2.017-1.039-2.702-1.648s-1.185-1.291-1.497-2.047
	c-0.312-0.755-0.468-1.695-0.468-2.82C234.019,258.671,234.484,257.327,235.416,256.358z M261.206,379.165h-0.621v-5.787h0.813
	c0.764,0,1.332,0.229,1.707,0.686c0.373,0.457,0.561,1.158,0.561,2.105c0,1.013-0.197,1.766-0.594,2.258
	C262.677,378.919,262.054,379.165,261.206,379.165z M229.394,421.285v12.393h22.025h91.125h23.343v-11.979V313.185H229.394V421.285z
	 M327.649,371.123h3.646l3.76,7.18h0.043c-0.066-1.041-0.1-1.877-0.1-2.509v-4.671h2.488v10.332h-3.66l-3.773-7.279h-0.064
	c0.09,1.146,0.135,2.02,0.135,2.622v4.657h-2.475V371.123z M317.024,372.321c0.861-0.907,2.109-1.36,3.75-1.36
	c1.645,0,2.891,0.449,3.738,1.35c0.848,0.899,1.271,2.222,1.271,3.965c0,1.738-0.426,3.06-1.279,3.964
	c-0.852,0.905-2.102,1.357-3.744,1.357c-1.621,0-2.863-0.455-3.729-1.364s-1.297-2.233-1.297-3.972
	C315.735,374.541,316.165,373.228,317.024,372.321z M311.077,371.123h2.807v10.332h-2.807V371.123z M301.771,371.123h7.83v2.283
	h-2.516v8.049h-2.791v-8.049h-2.523V371.123z M294.272,371.081h3.725l3.414,10.374h-3.053l-0.51-1.937h-3.357l-0.521,1.937h-3.068
	L294.272,371.081z M279.948,371.123h3.646l3.76,7.18h0.043c-0.066-1.041-0.1-1.877-0.1-2.509v-4.671h2.488v10.332h-3.662
	l-3.773-7.279h-0.063c0.088,1.146,0.133,2.02,0.133,2.622v4.657h-2.473V371.123z M269.323,372.321
	c0.859-0.907,2.109-1.36,3.748-1.36c1.645,0,2.891,0.449,3.738,1.35c0.85,0.899,1.273,2.222,1.273,3.965
	c0,1.738-0.428,3.06-1.279,3.964c-0.854,0.905-2.102,1.357-3.746,1.357c-1.621,0-2.863-0.455-3.727-1.364
	c-0.865-0.909-1.297-2.233-1.297-3.972C268.034,374.541,268.464,373.228,269.323,372.321z M257.792,371.123h3.576
	c1.658,0,2.939,0.424,3.842,1.272c0.902,0.848,1.354,2.072,1.354,3.675c0,1.724-0.475,3.053-1.424,3.985s-2.285,1.399-4.004,1.399
	h-3.344V371.123z M297.269,377.229h-2.197c0.43-1.621,0.705-2.707,0.83-3.259c0.125-0.551,0.209-0.946,0.252-1.187
	c0.047,0.259,0.145,0.688,0.293,1.286c0.148,0.598,0.273,1.086,0.377,1.463L297.269,377.229z M270.974,376.275
	c0-2.017,0.699-3.025,2.098-3.025c0.689,0,1.205,0.246,1.553,0.739c0.346,0.492,0.52,1.254,0.52,2.286
	c0,1.026-0.172,1.783-0.514,2.269c-0.342,0.484-0.865,0.728-1.572,0.728C271.669,379.271,270.974,378.272,270.974,376.275z
	 M318.675,376.275c0-2.017,0.699-3.025,2.1-3.025c0.688,0,1.205,0.246,1.551,0.739c0.346,0.492,0.52,1.254,0.52,2.286
	c0,1.026-0.17,1.783-0.512,2.269c-0.342,0.484-0.867,0.728-1.572,0.728C319.37,379.271,318.675,378.272,318.675,376.275z
	 M378.824,261.704c-0.054,0.03-0.102,0.061-0.159,0.088c-0.383,0.191-0.855,0.322-1.385,0.409c-0.445,0.074-1.001,0.008-1.588-0.145
	c-1.449-0.377-3.102-1.335-3.847-2.411c-1.28-1.848,1.702-7.942,1.87-7.962c0.085-0.009,1.21-0.424,1.307-0.422
	c0.341,0.011,2.295-0.222,3.857,0.928c-2.814-9.523-11.62-16.475-22.056-16.475c-12.703,0-23,10.297-23,23s10.297,23,23,23
	c1.41,0,2.788-0.134,4.128-0.377c3.212-0.582,6.193-1.826,8.791-3.594c1.528-1.039,2.924-2.258,4.158-3.625
	c3.043-3.371,5.096-7.647,5.718-12.376C379.149,261.72,378.825,261.703,378.824,261.704z M365.431,262.895
	c-0.307,1.406-1.188,2.649-2.643,3.729l1.429,2.656l-1.954,1.051l-0.449,0.242l-0.237-0.441l-1.147-2.132
	c-0.824,0.388-1.681,0.681-2.563,0.894c-0.984,0.238-2.003,0.375-3.061,0.395l-0.822-1.528l-1.636-3.04
	c1.188,0.058,2.406-0.016,3.654-0.219c1.248-0.205,2.27-0.521,3.068-0.95c0.656-0.354,1.088-0.708,1.293-1.06
	c0.204-0.354,0.188-0.749-0.049-1.189c-0.162-0.303-0.412-0.5-0.745-0.593c-0.335-0.093-0.831-0.133-1.489-0.122
	c-0.657,0.011-1.524,0.064-2.602,0.158c-1.215,0.098-2.269,0.04-3.16-0.172c-0.893-0.211-1.656-0.575-2.289-1.093
	c-0.632-0.517-1.215-1.271-1.748-2.262c-0.814-1.514-1.041-2.918-0.68-4.212c0.361-1.295,1.309-2.484,2.84-3.569l-1.014-1.885
	l2.402-1.293l1,1.857c1.594-0.729,3.389-1.114,5.381-1.157l0.729,4.665c-2.082,0.009-3.772,0.362-5.073,1.062
	c-0.619,0.334-1.006,0.657-1.162,0.972c-0.154,0.313-0.139,0.646,0.049,0.994c0.162,0.303,0.389,0.504,0.676,0.603
	c0.289,0.1,0.723,0.15,1.302,0.151c0.58,0.002,1.354-0.051,2.325-0.159c1.982-0.191,3.559-0.043,4.73,0.443
	c1.17,0.488,2.123,1.416,2.859,2.783C365.475,260.014,365.736,261.488,365.431,262.895z"></path>
</svg>