<?xml version="1.0" standalone="no"?>
<svg version="1.1" id="Layer_1" xmlns:cc="http://creativecommons.org/ns#" xmlns:dc="http://purl.org/dc/elements/1.1/" xmlns:rdf="http://www.w3.org/1999/02/22-rdf-syntax-ns#" xmlns:svg="http://www.w3.org/2000/svg" xmlns="http://www.w3.org/2000/svg" xmlns:xlink="http://www.w3.org/1999/xlink" x="0px" y="0px" viewBox="0 0 595.2 595.2" enable-background="new 0 0 595.2 595.2" xml:space="preserve">
<path id="color_x5F_1" fill="#0984E3" d="M248.595,264.044c4.079,0,7.386,3.307,7.386,7.386c0,4.079-3.307,7.386-7.386,7.386
	s-7.386-3.307-7.386-7.386S244.516,264.044,248.595,264.044z M200.713,190.258c0.041,0.008,14.444,2.73,17.702,3.147
	c1.52,0.195,2.009,1.544,2.102,1.855l11.128,55.121c0.779,3.862,3.029,9.201,9.571,9.201h47.351c1.135,0,2.055-0.92,2.055-2.055
	c0-1.135-0.92-2.055-2.055-2.055h-47.253c-2.376,0-4.388-0.637-5.48-5.172h52.733c1.604,0,2.702-1.328,2.918-2.918l4.817-35.321
	c0.216-1.59-1.316-2.822-2.918-2.918l-66.686-4.026l-2.158-10.69c-0.018-0.089-0.041-0.177-0.07-0.261
	c-0.242-0.804-1.517-4.305-5.542-4.821c-3.003-0.385-17.42-3.108-17.462-3.115c-1.113-0.208-2.184,0.525-2.392,1.638
	C198.867,188.978,199.6,190.049,200.713,190.258z M269.469,271.43c0,4.079,3.307,7.386,7.386,7.386c4.079,0,7.386-3.307,7.386-7.386
	c0-4.079-3.307-7.386-7.386-7.386S269.469,267.351,269.469,271.43z M227.667,160.048c0.057,0.276,0.301,0.475,0.583,0.475h36.136
	c5.196,0,12.167-3.927,18.91-7.726c6.616-3.728,13.457-7.584,16.635-6.178c0.935,0.413,1.542,1.282,1.856,2.656l2.47,10.785
	c0.062,0.271,0.303,0.462,0.58,0.462h6.814c0.281,0,0.523-0.196,0.582-0.471l5.064-23.82c1.31-6.16-1.41-14.187-6.062-17.895
	c-0.236-0.187-0.574-0.17-0.788,0.041c-0.062,0.061-6.266,6.113-14.563,11.234l-19.432-12.434c-0.271-0.173-0.633-0.099-0.814,0.168
	l-3.125,4.625c-0.089,0.132-0.122,0.294-0.09,0.451c0.031,0.156,0.124,0.293,0.257,0.38l16.25,10.665
	c-1.7,0.793-3.322,1.425-4.835,1.884c-11.785,3.571-16.41-2.521-16.601-2.781c-0.107-0.146-0.275-0.236-0.456-0.244
	c-0.188-0.016-0.356,0.067-0.475,0.204c-0.091,0.105-9.257,10.536-21.828,13.692c-4.759,1.195-8.499,2.107-11.326,2.797
	c-2.39,0.583-4.13,1.008-5.285,1.31c-1.381,0.361-2.129,1.66-1.818,3.157L227.667,160.048z M568.52,493.773
	c0,0.663-0.537,1.2-1.2,1.2h-90.501H72.144H27.88c-0.663,0-1.2-0.537-1.2-1.2s0.537-1.2,1.2-1.2h19.162
	c-1.32-1.225-2.153-2.969-2.153-4.908v-2.91c0-0.329,0.267-0.596,0.595-0.596h4.391c-2.97-1.638-4.987-4.799-4.987-8.423V332.443
	c0-5.301,4.312-9.614,9.614-9.614h58.916h54.123c-4.568-3.387-11.677-11.019-8.354-26.728c2.428-11.479,0.975-20.642-2.614-27.181
	c-2.248-4.097-5.335-7.162-8.824-9.115c-3.468-1.943-7.339-2.786-11.176-2.452c-2.052,0.179-4.092,0.717-6.062,1.584
	c-2.652,1.167-5.173,2.947-7.394,5.412c-0.006,0.007-0.013,0.013-0.02,0.02c-0.368,0.409-1,0.443-1.409,0.074
	c-0.409-0.368-0.442-0.999-0.074-1.409c0.161-0.18,0.334-0.334,0.498-0.507c1.982-2.088,4.161-3.731,6.463-4.905
	c2.513-1.281,5.162-2.028,7.826-2.26c4.233-0.369,8.501,0.561,12.323,2.702c3.803,2.129,7.161,5.458,9.596,9.896
	c3.8,6.924,5.353,16.558,2.817,28.547c-3.794,17.936,6.95,24.468,10.022,26.322h99.785c5.301,0,9.614,4.313,9.614,9.614v143.293
	c0,3.624-2.017,6.785-4.987,8.423h4.392c0.329,0,0.595,0.267,0.595,0.596v2.91c0,1.939-0.832,3.683-2.153,4.908h36.927
	c0.732-10.023,1.144-24.682-0.705-39.943c-3.5-28.874-8.765-47.947-9.137-49.272c-7.763-12.405-13.901-24.752-16.955-35.206
	c-9.62-32.931,20.812-46.257,30.812-50.636c0.027-0.012,0.05-0.022,0.077-0.034c-2.224-1.084-4.167-3.407-5.669-6.857
	c-6.753-15.508-5.441-56.244,18.619-98.254c28.573-49.89,53.077-47.153,75.727-40.076c10.255,3.205,18.221,12.871,23.036,27.953
	c4.103,12.845,5.818,29.292,4.832,46.31c-0.791,13.641-5.249,26.647-9.183,38.123c-5.133,14.978-9.566,27.912-3.729,36.54
	c0.193,0.286,0.352,0.56,0.525,0.839c7.474,3.41,14.403,9.09,20.594,16.898c4.887,6.163,10.357,14.243,16.702,24.673
	c0.649-2.669,1.228-4.948,2.134-5.945c2.22-2.442,4.293-8.027,3.963-13.978c-0.203-3.656,1.727-4.209,2.322-4.291
	c2.148-0.297,5.026,2.169,5.945,6.302c0.513,2.309,0.55,4.57,0.386,6.521c0.395-1.332,1-2.587,1.93-3.27
	c2.309-1.698,10.731-1.614,11.094-1.614c1.45,0.018,2.83,0.693,3.887,1.904c1.134,1.301,1.726,3.013,1.543,4.47
	c-0.162,1.297,0.46,2.008,1.181,2.832c0.399,0.455,0.812,0.927,1.105,1.517c0.839,1.674,0.703,3.716-0.391,5.905
	c-0.436,0.87-0.188,1.413,0.22,2.312c0.312,0.688,0.701,1.546,0.747,2.698c0.066,1.67-0.505,2.738-1.168,3.976
	c-0.38,0.71-0.812,1.516-1.17,2.554c-0.394,1.143-0.312,1.89-0.238,2.55c0.102,0.921,0.198,1.791-0.975,2.963
	c-1.066,1.066-9.795,5.586-17.173,9.31c2.491,4.562,6.15,11.368,10.029,18.935c8.48-15.435,13.402-31.959,17.81-46.758
	c2.087-7.009,4.059-13.629,6.206-19.376c0.05-0.154,0.428-1.289,0.994-2.028c0.343-0.448,0.762-0.825,1.06-1.067
	c-0.329-0.931-0.592-1.991-0.75-3.199c-0.057-0.432-0.094-0.877-0.113-1.331l-8.21,2.162c-0.021,0.005-0.04,0.01-0.061,0.015
	c-0.02,0.006-0.04,0.011-0.062,0.015c-0.02,0.003-0.039,0.007-0.059,0.01c-0.139,0.027-0.275,0.046-0.41,0.057
	c-1.623,0.165-3.289-0.327-4.529-1.361c-0.984-0.82-1.549-1.844-1.549-2.808v-16.89c-1.023-0.619-1.376-1.455-1.529-2.248
	c-0.129-0.656-0.001-1.356,0.146-1.868c-1.32-0.282-2.29-1.142-2.423-2.269c-0.075-0.639,0.044-2.571,3.806-3.771v-5.276
	c-0.703-0.106-1.295-0.238-1.738-0.416c-0.685-0.273-1.008-0.872-0.824-1.524c0.2-0.717,1.077-1.527,2.562-2.205v-25.608
	c0-2.059,1.573-4.149,3.507-4.658l21.781-5.737c0.355-0.093,0.952-0.114,1.477,0.052l2.981,0.946
	c1.344,0.329,2.212,1.534,2.212,3.076v24.354c1.6,3.259,3.539,5.955,5.264,8.353c2.984,4.149,5.562,7.733,4.973,12.312
	c-0.412,3.195-0.903,5.93-1.378,8.574c-1.235,6.879-2.401,13.377-1.691,26.144c0.001,0.013,0.002,0.025,0.002,0.038c0,0,0,0,0,0.001
	c0,0,0,0.001,0,0.002c-0.001,0.038-0.004,0.075-0.012,0.11c-0.165,0.947-7.817,44.384-20.365,86.095
	c-4.849,16.115-11.723,25.655-20.429,28.356c-7.189,2.232-15.308-0.23-24.123-7.314c-14.685-11.8-28.931-27.891-32.137-31.58
	c-5.71,15.989-11.938,44.52-15.698,71.916h56.769h87.609C567.982,492.573,568.52,493.11,568.52,493.773z M136.764,485.351v0.859
	c0,1.448,0.983,2.459,2.392,2.459h47.138c2.22,0,2.392-1.882,2.392-2.459v-0.859H136.764z M271.32,332.037H54.096v144.032v0.074
	h217.257V332.037H271.32z M51.593,493.178h222.262c3.04,0,5.514-2.473,5.514-5.513v-2.314h-8.423h-81.07v0.859
	c0,2.217-1.406,3.65-3.583,3.65h-47.138c-2.076,0-3.582-1.535-3.582-3.65v-0.859h-81.07H46.08v2.314
	C46.08,490.705,48.553,493.178,51.593,493.178z M525.028,263.319l-21.781,5.737c-1.419,0.374-2.618,1.979-2.618,3.506v23.42
	c1.232-0.2,2.624-0.317,4.166-0.317c1.779,0,3.757,0.156,5.919,0.52c8.589,1.445,13.34,3.828,15.479,5.186
	c-0.392-1.36-1.029-3.336-1.812-4.903c-0.071-0.143-6.977-14.661-5.269-18.358c0.389-0.844,0.905-1.271,1.535-1.272h0.001
	c1.559,0,3.186,2.712,6.696,10.192v-21.816c0-0.777-0.345-1.69-1.312-1.922c-0.003,0-0.007-0.001-0.01-0.002
	C525.714,263.216,525.38,263.226,525.028,263.319z M497.77,296.674c0.508-0.171,1.064-0.328,1.668-0.463v-23.649
	c0-2.06,1.573-4.149,3.507-4.658l20.559-5.415l-0.52-0.165c-0.158-0.05-0.336-0.067-0.488-0.067c-0.142,0-0.262,0.015-0.326,0.032
	l-21.781,5.737c-1.419,0.374-2.618,1.98-2.618,3.507L497.77,296.674L497.77,296.674z M499.708,336.049
	c-0.178-0.42-0.271-0.896-0.271-1.411v-17.071c-0.646-0.075-1.198-0.189-1.668-0.332v16.374c0,0.592,0.429,1.317,1.12,1.894
	C499.143,335.713,499.417,335.896,499.708,336.049z M500.125,316.442c0.844,0.061,1.872,0.062,3.131-0.021
	c7.053-0.468,12.534,2.12,12.764,2.23c0.288,0.138,0.416,0.478,0.291,0.771c-0.045,0.104-4.443,10.54-3.561,17.273
	c0.166,1.266,0.455,2.353,0.812,3.282c0.021,0.039,0.036,0.079,0.047,0.12c1.44,3.627,3.937,4.811,4.237,4.941
	c5.328,1.194,11.438,1.365,16.645-0.463c-0.668-12.617,0.498-19.111,1.731-25.981c0.472-2.631,0.96-5.351,1.368-8.517
	c0.53-4.112-1.803-7.357-4.758-11.465c-1.879-2.612-4.009-5.573-5.715-9.255c-1.964-4.239-5.252-11.333-6.47-11.333
	c-0.069,0-0.244,0.123-0.455,0.581c-1.134,2.455,3.354,13.531,5.252,17.327c1.388,2.775,2.297,6.603,2.335,6.764
	c0.061,0.254-0.053,0.517-0.278,0.649c-0.224,0.131-0.51,0.102-0.703-0.073c-0.043-0.039-4.414-3.919-16.282-5.916
	c-8.657-1.456-13.562,0.525-14.947,1.775c-0.349,0.315-0.418,0.523-0.415,0.572c0-0.016,0.041,0.024,0.127,0.059
	c0.973,0.389,3.019,0.54,5.388,0.716c2.882,0.213,6.147,0.454,8.849,1.208c4.919,1.373,10.622,4.267,10.862,4.39
	c0.255,0.13,0.382,0.424,0.301,0.699c-0.082,0.275-0.346,0.463-0.633,0.423c-0.133-0.014-13.277-1.351-20.997-0.005
	c-3.688,0.642-5.217,1.969-5.096,3c0.076,0.646,0.851,1.268,2.051,1.314c0-0.001,0.028,0,0.043,0.001
	c0.11,0.003,0.227,0.001,0.347-0.006c1.057-0.066,2.188-0.191,3.386-0.323c2.939-0.324,6.273-0.69,9.972-0.362
	c5.207,0.463,9.099,2.497,9.262,2.583c0.291,0.154,0.401,0.514,0.248,0.805c-0.155,0.29-0.515,0.4-0.805,0.248
	c-0.038-0.021-3.854-2.009-8.811-2.45c-3.587-0.317-6.854,0.042-9.736,0.36c-1.212,0.134-2.357,0.26-3.441,0.327
	c-0.019,0.002-0.038,0.003-0.057,0.004c-0.142,0.412-0.295,1.042-0.196,1.547c0.121,0.625,0.371,1.919,3.815,2.191h0.001
	C500.064,316.435,500.096,316.438,500.125,316.442z M498.848,306.021c0.193-0.033,0.391-0.065,0.59-0.096v-4.345
	c-0.587-0.045-1.146-0.093-1.668-0.147v4.806C498.105,306.161,498.465,306.089,498.848,306.021z M516.88,305.738
	c-2.117-0.952-5.047-2.167-7.683-2.903c-2.572-0.718-5.754-0.956-8.568-1.164v4.094C506.003,305.132,512.876,305.451,516.88,305.738
	z M514.989,319.504c-1.504-0.612-6.124-2.256-11.655-1.895c-1.023,0.068-1.919,0.08-2.705,0.049v16.979
	c0,0.697,0.239,1.271,0.676,1.614c0.325,0.257,0.746,0.371,1.227,0.342c0.113-0.012,0.227-0.027,0.34-0.047
	c0.028-0.006,0.058-0.013,0.086-0.02l8.49-2.236C511.581,328.425,514.189,321.498,514.989,319.504z M511.579,343.023
	c1.005,0.438,2.091,0.843,3.235,1.203c-0.695-0.736-1.42-1.72-2.021-3.014c-0.193,0.176-0.406,0.392-0.587,0.628
	C511.944,342.183,511.724,342.664,511.579,343.023z M475.158,390.881c-4.244,2.135-7.867,3.923-9.05,4.505
	c0.026,0.179,0.06,0.357,0.083,0.537c0.024,0.196-0.05,0.393-0.198,0.523c-0.216,0.189-7.301,6.389-17.424,15.116
	c-2.885,2.487-6.016,5.178-9.306,7.996c2.505,2.9,17.151,19.612,32.259,31.752c8.489,6.821,16.236,9.21,23.023,7.105
	c4.895-1.519,9.195-5.383,12.874-11.501c2.563-4.263,4.826-9.61,6.768-16.063c11.544-38.37,18.938-78.208,20.157-84.969
	c-5.314,1.715-11.442,1.509-16.795,0.307c-0.023-0.004-0.046-0.009-0.069-0.016c-2.29-0.519-4.437-1.22-6.313-2.031
	c-2.051,5.574-3.954,11.966-5.966,18.719c-5.072,17.033-10.822,36.339-21.894,53.733c-0.176,0.278-0.545,0.36-0.821,0.183
	c-0.277-0.176-0.359-0.544-0.183-0.821c1.139-1.79,2.22-3.599,3.251-5.426c-0.024-0.046-0.051-0.097-0.079-0.153
	C481.488,402.581,477.706,395.548,475.158,390.881z M474.784,357.008c0.041-0.019,0.081-0.037,0.122-0.056
	c0.006-0.138,0.015-0.312,0.027-0.516C474.882,356.644,474.832,356.834,474.784,357.008z M458.464,373.698
	c-0.685,0.88-2.42,2.023-3.434,2.649c5.296,3.479,9.472,10.316,10.88,17.81c10.233-5.041,25.423-12.744,26.643-13.963
	c0.769-0.768,0.723-1.177,0.633-1.99c-0.082-0.745-0.185-1.673,0.297-3.069c0.389-1.128,0.844-1.978,1.246-2.728
	c0.627-1.172,1.081-2.02,1.027-3.366c-0.037-0.919-0.345-1.598-0.643-2.253c-0.437-0.963-0.889-1.959-0.199-3.338
	c0.933-1.866,1.064-3.495,0.391-4.84c-0.227-0.453-0.571-0.848-0.937-1.265c-0.795-0.908-1.695-1.938-1.467-3.765
	c0.14-1.113-0.354-2.502-1.259-3.539c-0.83-0.951-1.896-1.482-3.003-1.495c-4.067-0.06-9.066,0.421-10.375,1.382
	c-1.432,1.053-1.978,4.44-2.13,6.434c1.436-0.73,2.538-1.438,3.49-2.131c-0.187-0.282-0.486-0.808-0.691-1.524
	c-0.301-1.053-0.305-1.775-0.305-1.806c0-0.329,0.267-0.596,0.596-0.596s0.596,0.267,0.596,0.596c0,0.039,0.014,0.624,0.258,1.479
	c0.15,0.523,0.361,0.912,0.498,1.131c0.358-0.281,0.702-0.562,1.044-0.839c0.878-0.715,1.786-1.453,2.889-2.178
	c0.275-0.183,0.645-0.104,0.824,0.17c0.181,0.274,0.104,0.644-0.17,0.824c-1.053,0.692-1.897,1.38-2.792,2.106
	c-2.55,2.075-5.187,4.22-12.831,6.65c-0.316,0.099-0.648-0.074-0.748-0.387c-0.1-0.313,0.073-0.648,0.387-0.748
	c1.603-0.51,2.979-1.006,4.175-1.49c0.312-0.943,1.928-6.245,0.729-11.644c-0.805-3.618-3.235-5.577-4.62-5.38
	c-0.925,0.127-1.396,1.237-1.296,3.045c0.348,6.277-1.886,12.219-4.271,14.845c-0.738,0.812-1.319,3.208-1.935,5.744
	C461.138,367.619,460.205,371.461,458.464,373.698z M329.197,310.413c4.252,4.188,10.113,6.301,17.459,6.301
	c1.204,0,2.449-0.057,3.732-0.171c0.327-0.029,0.569-0.317,0.54-0.646c-0.029-0.327-0.32-0.577-0.646-0.54
	c-8.74,0.772-15.561-1.174-20.251-5.793c-6.622-6.522-9.329-18.705-8.045-36.208c1.642-22.365,16.984-71.762,41.713-90.585
	c8.088-6.157,16.472-8.426,24.908-6.749c0.318,0.063,0.636-0.145,0.7-0.468s-0.146-0.636-0.468-0.7
	c-8.794-1.747-17.491,0.598-25.862,6.97c-25.013,19.04-40.523,68.889-42.179,91.445
	C319.471,291.388,322.218,303.538,329.197,310.413z M370.522,222.409c-0.292,0.152-0.404,0.512-0.252,0.803
	c0.105,0.204,0.313,0.32,0.528,0.32c0.093,0,0.187-0.021,0.274-0.067c5.404-2.821,11.434-9.913,15.36-18.066
	c4.354-9.043,5.384-17.555,2.826-23.352c-0.133-0.301-0.485-0.436-0.785-0.304c-0.301,0.132-0.438,0.484-0.305,0.785
	C393.626,194.89,380.791,217.049,370.522,222.409z M362.101,258.599c0.321,0.021,0.567,0.292,0.558,0.611
	c-0.003,0.177-0.043,14.197,22.637,31.169c3.379,2.528,6.746,4.14,10.007,4.792l0.3,0.063c5,0.911,9.665-0.438,13.857-4.012
	c10.824-9.227,16.963-31.978,16.478-60.958c-2.128,0.753-6.915,1.813-9.652,1.543c-0.188-0.018-0.356-0.125-0.453-0.287
	c-0.098-0.163-0.111-0.361-0.038-0.535c1.523-3.645,1.014-16.501-1.901-27.678c1.533,13.445-0.065,22.615-4.91,28.564
	c-0.068,0.083-0.158,0.147-0.259,0.184c-6.162,2.23-31.009,0.101-39.582-1.135c-0.257,7.998-1.68,13.819-4.461,18.28
	c-0.148,0.238-0.442,0.34-0.706,0.245s-0.426-0.361-0.389-0.639c0.014-0.102,1.287-10.259-4.781-15.38
	c-2.605-2.199-5.4-2.745-7.478-1.462c-2.749,1.698-3.618,6.232-2.267,11.833c2.598,10.772,6.06,14.186,8.506,15.153
	c2.313,0.915,4.062-0.184,4.166-0.251C361.837,258.628,361.97,258.597,362.101,258.599z M395.606,176.916
	c-0.219-0.245-0.596-0.266-0.84-0.047c-0.245,0.219-0.267,0.596-0.047,0.841c11.574,12.946,14.584,35.182,6.708,49.567
	c-0.157,0.288-0.052,0.65,0.236,0.808c0.091,0.05,0.189,0.073,0.285,0.073c0.211,0,0.415-0.112,0.523-0.31
	C410.57,213.057,407.49,190.208,395.606,176.916z M370.985,338.537c2.487,0.889,10.418,3.282,17.866,0.801
	c7.409-2.471,8.367-5.315,8.489-6.062c-5.43-5.794-10.149-12.376-10.439-12.782c-0.058-0.08-0.094-0.174-0.106-0.271
	c-0.472-3.781-1.029-12.431,0.073-19.333c0.421-2.636,1.075-5.025,2.081-6.778c-1.452-0.761-2.909-1.688-4.366-2.779
	c-14.924-11.168-20.22-20.995-22.094-26.763c-0.113,8.154,0.244,24.158,4.03,37.441c1.04,3.649,2.338,7.094,3.958,10.113
	C376.436,323.227,375.288,333.405,370.985,338.537z M306.617,402.963c17.988,28.718,44.688,57.694,61.777,63.88
	c4.69,1.698,8.457,1.627,11.195-0.215c1.155-0.777,2.485-1.721,3.963-2.808c22.059-16.222,77.284-64.448,81.416-68.06
	c-1.126-8.143-5.69-15.685-11.469-18.958l-16.168,8.931c-0.002,0.001-0.003,0.002-0.005,0.003l-60.783,33.576
	c-0.266,0.146-0.6,0.069-0.775-0.18l-39.308-55.937c-0.188-0.269-0.124-0.64,0.146-0.829c0.269-0.189,0.64-0.123,0.829,0.146
	l39,55.499l59.953-33.117c-2.784-21.862-11.316-34.752-11.402-34.88c-0.184-0.273-0.111-0.643,0.162-0.827
	c0.27-0.182,0.642-0.111,0.825,0.161c0.074,0.11,6.257,9.438,9.888,25.635c0.646,2.883,1.209,5.987,1.645,9.293l5-2.762
	l10.705-5.913c0.177-0.097,0.392-0.099,0.57-0.003c0.032,0.017,0.062,0.038,0.094,0.056c0.943-0.557,3.016-1.874,3.648-2.687
	c1.375-1.766,2.234-4.792,2.956-7.7c-6.583-10.881-12.223-19.247-17.236-25.569c-5.646-7.119-11.909-12.41-18.627-15.798
	c3.366,6.821,0.623,11.304-1.514,13.486c-4.543,4.64-13.021,6.054-17.788,2.971c-2.24-1.45-4.682-3.661-7.031-6.089
	c-0.612,1.499-2.61,4.052-9.055,6.2c-8.465,2.823-17.211-0.237-19.13-0.985c-0.095,0.09-0.19,0.178-0.287,0.263
	c-1.795,1.579-3.871,2.366-6.085,2.366c-2.363,0.001-4.883-0.896-7.388-2.686c-2.936-2.097-5.674-4.188-8.322-6.213
	c-8.901-6.801-16.597-12.678-26.967-15.146c-0.363,0.163-0.765,0.34-1.224,0.541c-2.306,1.01-5.726,2.508-9.481,4.627
	c-12.141,6.851-27.79,20.2-20.667,44.584c3.025,10.354,9.088,22.574,16.758,34.856c0.083,0.073,0.146,0.17,0.179,0.283
	C306.615,402.958,306.616,402.96,306.617,402.963z M334.007,492.573h87.733c3.681-26.888,9.746-54.903,15.383-71.185
	c-20.474,17.502-46.141,39.014-56.87,46.228c-3.07,2.064-7.199,2.181-12.265,0.347c-8.657-3.134-19.751-12.049-30.95-23.801
	c-10.342-10.853-20.773-24.124-29.457-37.521c1.752,6.988,5.519,23.495,8.228,45.847c1.856,15.31,1.448,30.011,0.718,40.086
	L334.007,492.573L334.007,492.573z M398.4,248.429c0-1.944-0.95-3.52-2.122-3.52s-2.122,1.576-2.122,3.52s0.95,3.52,2.122,3.52
	C397.45,251.949,398.4,250.373,398.4,248.429z M416.598,244.527c-1.171,0-2.122,1.576-2.122,3.52s0.951,3.52,2.122,3.52
	c1.172,0,2.122-1.576,2.122-3.52S417.769,244.527,416.598,244.527z M402.721,268.894c0.111,0.061,1.927,1.028,4.392,1.028
	c1.197,0,2.548-0.229,3.931-0.9c1.467-0.712,2.878-1.574,3.271-3.045c0.454-1.697-0.462-3.929-3.381-8.234
	c-4.356-6.425-1.894-14.735-1.868-14.818c0.096-0.314-0.081-0.647-0.396-0.743c-0.313-0.099-0.646,0.081-0.743,0.395
	c-0.11,0.361-2.66,8.93,2.021,15.835c2.662,3.926,3.564,5.961,3.217,7.258c-0.218,0.815-0.983,1.477-2.641,2.282
	c-3.668,1.782-7.198-0.083-7.233-0.103c-0.287-0.157-0.65-0.049-0.807,0.239C402.326,268.376,402.433,268.736,402.721,268.894z
	 M413.497,237.049c0.021-0.021,2.152-2.138,5.265-1.995c3.086,0.154,4.901,2.643,4.919,2.667c0.116,0.163,0.3,0.25,0.486,0.25
	c0.119,0,0.239-0.036,0.344-0.11c0.268-0.19,0.331-0.561,0.141-0.829c-0.086-0.122-2.153-2.983-5.831-3.167
	c-3.637-0.176-6.073,2.249-6.174,2.353c-0.229,0.235-0.225,0.61,0.01,0.84C412.89,237.287,413.268,237.283,413.497,237.049z
	 M378.416,240.66c0.104,0,0.21-0.027,0.307-0.085c0.065-0.039,6.591-3.935,12.773-4.377c6.023-0.43,8.673,1.986,8.696,2.009
	c0.237,0.228,0.613,0.22,0.842-0.018c0.228-0.237,0.22-0.614-0.018-0.841c-0.12-0.116-3.03-2.805-9.604-2.337
	c-6.474,0.463-13.028,4.378-13.305,4.545c-0.281,0.17-0.372,0.536-0.202,0.817C378.018,240.557,378.214,240.66,378.416,240.66z
	 M398.857,274.223c7.903,0.878,12.277-1.72,12.32-1.747c0.224-0.137,0.51-0.11,0.705,0.063c0.195,0.174,0.256,0.454,0.146,0.692
	c-0.231,0.506-5.227,11.251-12.047,11.251c-0.749,0-1.52-0.129-2.309-0.416c-7.719-2.807-11.301-12.192-11.449-12.59
	c-0.091-0.244-0.013-0.518,0.192-0.678c0.207-0.16,0.492-0.166,0.705-0.02C387.158,270.805,390.903,273.339,398.857,274.223z
	 M398.727,275.406c-5.338-0.593-8.829-1.89-10.682-2.767c1.355,2.761,4.671,8.358,10.035,10.309
	c5.475,1.992,10.261-5.396,12.084-8.696C408.141,275.024,404.273,276.022,398.727,275.406z M504.335,277.144
	c-0.565-0.505-0.89-1.331-0.89-2.266c0-1.6,0.947-2.96,2.155-3.096l0,0c0.506-0.055,1,0.11,1.398,0.466
	c0.564,0.505,0.889,1.331,0.889,2.266c0,1.6-0.946,2.96-2.154,3.096c-0.064,0.007-0.128,0.011-0.192,0.011
	C505.104,277.62,504.683,277.455,504.335,277.144z M504.637,274.878c0,0.579,0.188,1.106,0.492,1.378
	c0.147,0.132,0.315,0.188,0.472,0.17c0.519-0.058,1.096-0.858,1.096-1.913c0-0.579-0.188-1.107-0.491-1.379
	c-0.147-0.131-0.307-0.189-0.472-0.17C505.215,273.023,504.637,273.823,504.637,274.878z M106.328,221.736
	c-0.902-1.032-1.296-2.354-1.111-3.722l4.925-36.389c0-0.003,0-0.006,0.001-0.009c0.124-0.908,0.461-1.781,0.98-2.546
	c1.402-16.565,12.876-29.014,26.804-29.014s25.402,12.45,26.805,29.015c0.519,0.765,0.855,1.637,0.979,2.544
	c0,0.003,0.001,0.007,0.001,0.01l4.925,36.388c0.186,1.368-0.209,2.689-1.111,3.722c-0.934,1.069-2.307,1.683-3.766,1.683h-55.667
	C108.635,223.419,107.262,222.806,106.328,221.736z M113.791,176.908c0.615-0.241,1.27-0.368,1.939-0.368h44.393
	c0.67,0,1.325,0.127,1.94,0.368c-2.117-14.116-12.131-24.451-24.137-24.451C125.922,152.457,115.908,162.793,113.791,176.908z
	 M113.003,180.583h49.847c-0.073-0.12-0.152-0.236-0.238-0.349c-0.636-0.823-1.543-1.295-2.489-1.295H115.73
	c-0.941,0-1.844,0.468-2.479,1.283c-0.006,0.008-0.012,0.016-0.019,0.024C113.15,180.355,113.073,180.467,113.003,180.583z
	 M113.565,182.983c0.907,1.195,2.372,2.852,4.493,4.488c3.666,2.828,10.1,6.193,20.018,6.086c9.909-0.093,16.276-3.434,19.874-6.221
	c2.056-1.592,3.469-3.192,4.348-4.353L113.565,182.983L113.565,182.983z M108.135,220.158c0.478,0.547,1.192,0.862,1.958,0.862
	h55.667c0.767,0,1.48-0.314,1.958-0.862c0.439-0.503,0.631-1.149,0.541-1.821l-4.506-33.291
	c-3.175,3.944-10.805,10.771-25.655,10.91c-14.933,0.125-22.766-6.9-25.997-10.92l-4.507,33.301
	C107.504,219.008,107.696,219.655,108.135,220.158z M119.063,391.633c-0.754-0.984-0.96-2.227-0.594-3.593l6.63-24.725
	c0.07-0.26,0.306-0.441,0.575-0.441h74.178c0.27,0,0.505,0.182,0.575,0.441l3.581,13.353l3.049,11.372
	c0.366,1.366,0.161,2.608-0.594,3.593c-1.119,1.457-3.446,2.328-6.227,2.328c-0.033,0-0.061-0.004-0.094-0.004v57.679h5.737
	c0.329,0,0.595,0.267,0.595,0.596v6.399c0,0.329-0.267,0.596-0.595,0.596h-86.234c-0.329,0-0.595-0.267-0.595-0.596v-6.399
	c0-0.329,0.267-0.596,0.595-0.596h5.737v-22.835v-34.844c-0.032,0-0.061,0.004-0.094,0.004
	C122.509,393.961,120.182,393.09,119.063,391.633z M195.951,392.821c-0.688-0.478-1.249-1.105-1.677-1.891
	c-0.148,0.314-0.339,0.61-0.571,0.887c-1.145,1.362-3.316,2.144-5.958,2.144c-2.809,0-4.758-0.89-5.853-2.629
	c-0.078-0.124-0.163-0.241-0.232-0.373c-0.167,0.342-0.383,0.658-0.639,0.951c-0.016,0.018-0.028,0.038-0.044,0.056
	c-0.539,0.596-1.272,1.063-2.148,1.398c-1.013,0.387-2.219,0.597-3.575,0.597c-3.084,0-5.206-1.047-6.2-3.003
	c-0.214,0.428-0.488,0.815-0.824,1.161c-1.172,1.204-3.062,1.842-5.467,1.842c-2.404,0-4.294-0.637-5.466-1.842
	c-0.336-0.346-0.611-0.733-0.824-1.161c-0.994,1.956-3.116,3.003-6.201,3.003c-2.528,0-4.56-0.709-5.723-1.995
	c-0.278-0.308-0.505-0.644-0.683-1.007c-1.04,1.994-3.076,3.002-6.085,3.002c-2.641,0-4.812-0.781-5.958-2.144
	c-0.232-0.276-0.423-0.572-0.571-0.887c-0.428,0.785-0.988,1.412-1.677,1.891v33.2v25.614h66.375v-58.814H195.951z M128.192,393.521
	c-0.055,0.019-0.113,0.034-0.169,0.052c-0.219,0.07-0.443,0.134-0.68,0.184c-0.097,0.021-0.2,0.034-0.3,0.052
	c-0.156,0.027-0.305,0.062-0.469,0.081v57.746h1.811v-58.174C128.324,393.485,128.255,393.499,128.192,393.521z M199.548,452.827
	h-3.001H128.98h-3.001h-5.737v5.208h85.043v-5.208H199.548z M198.484,393.809c-0.1-0.018-0.204-0.031-0.301-0.052
	c-0.236-0.05-0.46-0.114-0.679-0.184c-0.056-0.018-0.115-0.033-0.17-0.052c-0.062-0.022-0.132-0.036-0.193-0.059v58.174h1.811
	V393.89C198.789,393.871,198.64,393.836,198.484,393.809z M120.008,390.907c0.881,1.149,2.905,1.862,5.282,1.862
	c3.349,0,5.095-1.442,5.659-4.678c0.057-0.323,0.365-0.537,0.689-0.484l0,0c0.289,0.051,0.493,0.302,0.493,0.586
	c0,0.034-0.003,0.068-0.009,0.104c-0.194,1.112,0.012,2.039,0.613,2.754c0.918,1.093,2.758,1.719,5.046,1.719
	c3.537,0,5.333-1.473,5.653-4.635c0.034-0.327,0.32-0.582,0.652-0.532l0,0c0.307,0.03,0.535,0.289,0.535,0.591
	c0,0.021-0.001,0.04-0.003,0.061c-0.122,1.202,0.152,2.182,0.813,2.914c0.934,1.033,2.653,1.602,4.839,1.602
	c3.665,0,5.566-1.545,5.651-4.592c0.009-0.323,0.274-0.579,0.595-0.579c0.006,0,0.011,0,0.017,0.001l0,0
	c0.323,0.009,0.579,0.273,0.579,0.594c0,0.006,0,0.012,0,0.018c-0.036,1.298,0.313,2.333,1.037,3.078
	c1.19,1.224,3.166,1.48,4.613,1.48c1.448,0,3.423-0.257,4.614-1.48c0.724-0.745,1.073-1.78,1.037-3.078c0-0.006,0-0.012,0-0.018
	c0-0.32,0.256-0.585,0.579-0.594l0,0c0.334-0.037,0.602,0.249,0.612,0.578c0.085,3.047,1.986,4.592,5.65,4.592
	c2.187,0,3.906-0.568,4.84-1.602c0.662-0.732,0.935-1.712,0.813-2.914c-0.002-0.021-0.003-0.04-0.003-0.061
	c0-0.302,0.229-0.561,0.535-0.591l0,0c0.334-0.05,0.619,0.204,0.652,0.532c0.32,3.162,2.117,4.635,5.653,4.635
	c2.289,0,4.128-0.626,5.046-1.719c0.601-0.715,0.807-1.642,0.613-2.754c-0.006-0.035-0.009-0.069-0.009-0.104
	c0-0.284,0.204-0.535,0.493-0.586l0,0c0.035-0.006,0.069-0.009,0.103-0.009c0.284,0,0.536,0.204,0.586,0.493
	c0.564,3.235,2.31,4.678,5.659,4.678c2.377,0,4.401-0.713,5.282-1.862c0.528-0.688,0.659-1.549,0.388-2.559l-6.511-24.283h-9.616
	h-10.721h-10.721h-11.148h-10.721l0,0h-10.721h-9.616l-6.511,24.283C119.349,389.358,119.479,390.219,120.008,390.907z"></path>
<path id="color_x5F_w" fill="#FFFFFF" d="M52.245,293.085c-0.436-0.902-0.634-1.762-0.584-2.585
	c0.048-0.826,0.285-1.597,0.704-2.318c0.425-0.719,0.996-1.377,1.721-1.971c0.724-0.594,1.546-1.114,2.464-1.558
	c0.902-0.436,1.729-0.765,2.478-0.995c0.744-0.228,1.468-0.37,2.167-0.428l1.746,3.609c-0.39-0.06-0.789-0.086-1.205-0.073
	s-0.832,0.057-1.244,0.129c-0.406,0.074-0.805,0.176-1.187,0.3c-0.38,0.128-0.73,0.267-1.051,0.422
	c-0.445,0.215-0.825,0.45-1.147,0.707c-0.321,0.262-0.568,0.529-0.745,0.803c-0.173,0.272-0.279,0.547-0.316,0.829
	c-0.032,0.28,0.017,0.551,0.145,0.814c0.141,0.292,0.341,0.516,0.603,0.669c0.264,0.157,0.588,0.27,0.972,0.338
	c0.378,0.066,0.817,0.103,1.317,0.105c0.495,0.005,1.05-0.015,1.659-0.05c0.832-0.046,1.599-0.036,2.308,0.022
	s1.363,0.2,1.951,0.419c0.595,0.221,1.123,0.545,1.588,0.971c0.463,0.422,0.863,0.985,1.202,1.686c0.468,0.968,0.677,1.863,0.63,2.7
	c-0.05,0.832-0.287,1.603-0.722,2.312c-0.429,0.711-1.017,1.356-1.763,1.935c-0.751,0.582-1.586,1.093-2.513,1.541
	c-0.948,0.458-1.888,0.816-2.822,1.07c-0.935,0.254-1.798,0.371-2.579,0.353l0,0l-1.869-3.864c0.985,0.25,1.961,0.323,2.922,0.219
	c0.961-0.104,1.861-0.356,2.697-0.761c0.494-0.239,0.901-0.492,1.222-0.753c0.323-0.268,0.57-0.535,0.739-0.815
	c0.172-0.276,0.263-0.549,0.281-0.817c0.02-0.274-0.034-0.533-0.155-0.784c-0.163-0.338-0.404-0.593-0.725-0.763
	c-0.323-0.174-0.706-0.294-1.148-0.355c-0.443-0.065-0.944-0.092-1.506-0.075c-0.559,0.011-1.157,0.036-1.794,0.075
	c-1.622,0.093-2.964-0.106-4.022-0.601C53.605,295.056,52.801,294.235,52.245,293.085z M71.131,299.318l-2.068-20.356l4.622-2.236
	l14.526,14.33l-4.247,2.055l-3.095-3.256l-6.155,2.977l0.644,4.442L71.131,299.318z M72.716,281.008
	c0.204,0.527,0.348,1.077,0.429,1.653l0.955,6.777l4.429-2.142l-4.672-4.918c-0.347-0.371-0.697-0.842-1.046-1.416L72.716,281.008z
	 M100.678,285.026l-1.53-3.164l-6.406,3.099l-6.841-14.143L82,272.705l8.371,17.307L100.678,285.026z M113.388,278.879l-1.53-3.164
	l-6.48,3.134l-1.915-3.959l5.661-2.738l-1.528-3.16l-5.661,2.738l-1.863-3.852l6.081-2.941l-1.534-3.172l-9.982,4.828l8.371,17.307
	L113.388,278.879z M398.727,275.406c-5.338-0.593-8.829-1.89-10.682-2.767c1.355,2.761,4.671,8.358,10.035,10.309
	c5.475,1.992,10.261-5.396,12.084-8.696C408.141,275.024,404.273,276.022,398.727,275.406z M386.795,320.223
	c-0.472-3.781-1.029-12.431,0.073-19.333c-1.415-0.304-4.968-1.25-9.198-3.586c-5.025-2.775-7.463-3.787-9.6-0.637
	c-1.23,1.812-1.523,3.897-1.551,5.344c1.04,3.649,2.338,7.094,3.958,10.113c5.959,11.104,4.812,21.282,0.509,26.414
	c2.487,0.889,10.418,3.282,17.866,0.801c7.409-2.471,8.367-5.315,8.489-6.062c-5.43-5.794-10.149-12.376-10.439-12.782
	C386.844,320.414,386.808,320.32,386.795,320.223z M425.937,230.265c0.485,28.98-5.653,51.731-16.478,60.958
	c-4.192,3.573-8.857,4.923-13.857,4.012l-0.3-0.063c-3.261-0.651-6.628-2.263-10.007-4.792
	c-22.68-16.973-22.64-30.993-22.637-31.169c0.01-0.319-0.236-0.59-0.558-0.611c-0.131-0.002-0.264,0.029-0.369,0.1
	c-0.104,0.067-1.853,1.166-4.166,0.251c-2.446-0.967-5.908-4.381-8.506-15.153c-1.352-5.601-0.482-10.135,2.267-11.833
	c2.077-1.282,4.872-0.736,7.478,1.462c6.068,5.121,4.795,15.278,4.781,15.38c-0.037,0.278,0.125,0.544,0.389,0.639
	s0.558-0.007,0.706-0.245c2.781-4.461,4.204-10.282,4.461-18.28c8.573,1.236,33.42,3.366,39.582,1.135
	c0.101-0.037,0.19-0.1,0.259-0.184c4.845-5.949,6.443-15.12,4.91-28.564c2.915,11.177,3.425,24.034,1.901,27.678
	c-0.073,0.174-0.06,0.373,0.038,0.535c0.097,0.162,0.265,0.269,0.453,0.287C419.021,232.078,423.809,231.018,425.937,230.265z
	 M391.496,236.197c6.023-0.43,8.673,1.986,8.696,2.009c0.237,0.228,0.613,0.22,0.842-0.018c0.228-0.237,0.22-0.614-0.018-0.841
	c-0.12-0.116-3.03-2.805-9.604-2.337c-6.474,0.463-13.028,4.378-13.305,4.545c-0.281,0.17-0.372,0.536-0.202,0.817
	c0.112,0.185,0.309,0.288,0.511,0.288c0.104,0,0.21-0.027,0.307-0.085C378.788,240.535,385.313,236.64,391.496,236.197z
	 M396.278,244.908c-1.172,0-2.122,1.576-2.122,3.52s0.95,3.52,2.122,3.52s2.122-1.576,2.122-3.52
	C398.4,246.484,397.45,244.908,396.278,244.908z M411.883,272.539c-0.195-0.173-0.481-0.2-0.705-0.063
	c-0.043,0.026-4.417,2.625-12.32,1.747c-7.954-0.884-11.699-3.417-11.735-3.443c-0.213-0.146-0.498-0.14-0.705,0.02
	c-0.205,0.16-0.283,0.434-0.192,0.678c0.148,0.398,3.73,9.783,11.449,12.59c0.789,0.287,1.56,0.416,2.309,0.416
	c6.82,0,11.815-10.745,12.047-11.251C412.139,272.993,412.078,272.713,411.883,272.539z M410.934,257.743
	c-4.356-6.425-1.894-14.735-1.868-14.818c0.096-0.314-0.081-0.647-0.396-0.743c-0.313-0.099-0.646,0.081-0.743,0.395
	c-0.11,0.361-2.66,8.93,2.021,15.835c2.662,3.926,3.564,5.961,3.217,7.258c-0.218,0.815-0.983,1.477-2.641,2.282
	c-3.668,1.782-7.198-0.083-7.233-0.103c-0.287-0.157-0.65-0.049-0.807,0.239c-0.157,0.289-0.051,0.649,0.237,0.806
	c0.111,0.061,1.927,1.028,4.392,1.028c1.197,0,2.548-0.229,3.931-0.9c1.467-0.712,2.878-1.574,3.271-3.045
	C414.769,264.28,413.853,262.048,410.934,257.743z M418.72,248.047c0-1.944-0.951-3.52-2.122-3.52c-1.171,0-2.122,1.576-2.122,3.52
	s0.951,3.52,2.122,3.52S418.72,249.991,418.72,248.047z M424.651,237.032c-0.086-0.122-2.153-2.983-5.831-3.167
	c-3.637-0.176-6.073,2.249-6.174,2.353c-0.229,0.235-0.225,0.61,0.01,0.84c0.233,0.229,0.611,0.226,0.841-0.008
	c0.021-0.021,2.152-2.138,5.265-1.995c3.086,0.154,4.901,2.643,4.919,2.667c0.116,0.163,0.3,0.25,0.486,0.25
	c0.119,0,0.239-0.036,0.344-0.11C424.778,237.67,424.842,237.3,424.651,237.032z M532.833,298.614
	c-1.879-2.612-4.009-5.573-5.715-9.255c-1.964-4.239-5.252-11.333-6.47-11.333c-0.069,0-0.244,0.123-0.455,0.581
	c-1.134,2.455,3.354,13.531,5.252,17.327c1.388,2.775,2.297,6.603,2.335,6.764c0.061,0.254-0.053,0.517-0.278,0.649
	c-0.224,0.131-0.51,0.102-0.703-0.073c-0.043-0.039-4.414-3.919-16.282-5.916c-8.657-1.456-13.562,0.525-14.947,1.775
	c-0.349,0.315-0.418,0.523-0.415,0.572c0-0.016,0.041,0.024,0.127,0.059c0.973,0.389,3.019,0.54,5.388,0.716
	c2.882,0.213,6.147,0.454,8.849,1.208c4.919,1.373,10.622,4.267,10.862,4.39c0.255,0.13,0.382,0.424,0.301,0.699
	c-0.082,0.275-0.346,0.463-0.633,0.423c-0.133-0.014-13.277-1.351-20.997-0.005c-3.688,0.642-5.217,1.969-5.096,3
	c0.076,0.646,0.851,1.268,2.051,1.314c0-0.001,0.028,0,0.043,0.001c0.11,0.003,0.227,0.001,0.347-0.006
	c1.057-0.066,2.188-0.191,3.386-0.323c2.939-0.324,6.273-0.69,9.972-0.362c5.207,0.463,9.099,2.497,9.262,2.583
	c0.291,0.154,0.401,0.514,0.248,0.805c-0.155,0.29-0.515,0.4-0.805,0.248c-0.038-0.021-3.854-2.009-8.811-2.45
	c-3.587-0.317-6.854,0.042-9.736,0.36c-1.212,0.134-2.357,0.26-3.441,0.327c-0.019,0.002-0.038,0.003-0.057,0.004
	c-0.142,0.412-0.295,1.042-0.196,1.547c0.121,0.625,0.371,1.919,3.815,2.191h0.001c0.031,0,0.062,0.003,0.092,0.008
	c0.844,0.061,1.872,0.062,3.131-0.021c7.053-0.468,12.534,2.12,12.764,2.23c0.288,0.138,0.416,0.478,0.291,0.771
	c-0.045,0.104-4.443,10.54-3.561,17.273c0.166,1.266,0.455,2.353,0.812,3.282c0.021,0.039,0.036,0.079,0.047,0.12
	c1.44,3.627,3.937,4.811,4.237,4.941c5.328,1.194,11.438,1.365,16.645-0.463c-0.668-12.617,0.498-19.111,1.731-25.981
	c0.472-2.631,0.96-5.351,1.368-8.517C538.121,305.967,535.788,302.722,532.833,298.614z M499.438,272.562
	c0-2.06,1.573-4.149,3.507-4.658l20.559-5.415l-0.52-0.165c-0.158-0.05-0.336-0.067-0.488-0.067c-0.142,0-0.262,0.015-0.326,0.032
	l-21.781,5.737c-1.419,0.374-2.618,1.98-2.618,3.507v25.141c0.508-0.171,1.064-0.328,1.668-0.463L499.438,272.562L499.438,272.562z
	 M474.934,356.437c-0.052,0.207-0.102,0.397-0.149,0.571c0.041-0.019,0.081-0.037,0.122-0.056
	C474.912,356.814,474.921,356.64,474.934,356.437z M499.438,301.581c-0.587-0.045-1.146-0.093-1.668-0.147v4.806
	c0.336-0.078,0.695-0.15,1.078-0.218c0.193-0.033,0.391-0.065,0.59-0.096V301.581z M504.637,274.878
	c0,0.579,0.188,1.106,0.492,1.378c0.147,0.132,0.315,0.188,0.472,0.17c0.519-0.058,1.096-0.858,1.096-1.913
	c0-0.579-0.188-1.107-0.491-1.379c-0.147-0.131-0.307-0.189-0.472-0.17C505.215,273.023,504.637,273.823,504.637,274.878z
	 M494.914,363.449c0.933-1.866,1.064-3.495,0.391-4.84c-0.227-0.453-0.571-0.848-0.937-1.265c-0.795-0.908-1.695-1.938-1.467-3.765
	c0.14-1.113-0.354-2.502-1.259-3.539c-0.83-0.951-1.896-1.482-3.003-1.495c-4.067-0.06-9.066,0.421-10.375,1.382
	c-1.432,1.053-1.978,4.44-2.13,6.434c1.436-0.73,2.538-1.438,3.49-2.131c-0.187-0.282-0.486-0.808-0.691-1.524
	c-0.301-1.053-0.305-1.775-0.305-1.806c0-0.329,0.267-0.596,0.596-0.596s0.596,0.267,0.596,0.596c0,0.039,0.014,0.624,0.258,1.479
	c0.15,0.523,0.361,0.912,0.498,1.131c0.358-0.281,0.702-0.562,1.044-0.839c0.878-0.715,1.786-1.453,2.889-2.178
	c0.275-0.183,0.645-0.104,0.824,0.17c0.181,0.274,0.104,0.644-0.17,0.824c-1.053,0.692-1.897,1.38-2.792,2.106
	c-2.55,2.075-5.187,4.22-12.831,6.65c-0.316,0.099-0.648-0.074-0.748-0.387c-0.1-0.313,0.073-0.648,0.387-0.748
	c1.603-0.51,2.979-1.006,4.175-1.49c0.312-0.943,1.928-6.245,0.729-11.644c-0.805-3.618-3.235-5.577-4.62-5.38
	c-0.925,0.127-1.396,1.237-1.296,3.045c0.348,6.277-1.886,12.219-4.271,14.845c-0.738,0.812-1.319,3.208-1.935,5.744
	c-0.822,3.39-1.755,7.231-3.496,9.469c-0.685,0.88-2.42,2.023-3.434,2.649c5.296,3.479,9.472,10.316,10.88,17.81
	c10.233-5.041,25.423-12.744,26.643-13.963c0.769-0.768,0.723-1.177,0.633-1.99c-0.082-0.745-0.185-1.673,0.297-3.069
	c0.389-1.128,0.844-1.978,1.246-2.728c0.627-1.172,1.081-2.02,1.027-3.366c-0.037-0.919-0.345-1.598-0.643-2.253
	C494.677,365.824,494.225,364.828,494.914,363.449z M499.438,317.566c-0.646-0.075-1.198-0.189-1.668-0.332v16.374
	c0,0.592,0.429,1.317,1.12,1.894c0.253,0.211,0.527,0.394,0.818,0.547c-0.178-0.42-0.271-0.896-0.271-1.411v-17.072H499.438z
	 M350.283,315.357c-8.74,0.772-15.561-1.174-20.251-5.793c-6.622-6.522-9.329-18.705-8.045-36.208
	c1.642-22.365,16.984-71.762,41.713-90.585c8.088-6.157,16.472-8.426,24.908-6.749c0.318,0.063,0.636-0.145,0.7-0.468
	s-0.146-0.636-0.468-0.7c-8.794-1.747-17.491,0.598-25.862,6.97c-25.013,19.04-40.523,68.889-42.179,91.445
	c-1.329,18.119,1.418,30.269,8.397,37.144c4.252,4.188,10.113,6.301,17.459,6.301c1.204,0,2.449-0.057,3.732-0.171
	c0.327-0.029,0.569-0.317,0.54-0.646C350.899,315.57,350.608,315.32,350.283,315.357z M401.428,227.277
	c-0.157,0.288-0.052,0.65,0.236,0.808c0.091,0.05,0.189,0.073,0.285,0.073c0.211,0,0.415-0.112,0.523-0.31
	c8.098-14.792,5.018-37.64-6.866-50.933c-0.219-0.245-0.596-0.266-0.84-0.047c-0.245,0.219-0.267,0.596-0.047,0.841
	C406.294,190.656,409.304,212.892,401.428,227.277z M370.522,222.409c-0.292,0.152-0.404,0.512-0.252,0.803
	c0.105,0.204,0.313,0.32,0.528,0.32c0.093,0,0.187-0.021,0.274-0.067c5.404-2.821,11.434-9.913,15.36-18.066
	c4.354-9.043,5.384-17.555,2.826-23.352c-0.133-0.301-0.485-0.436-0.785-0.304c-0.301,0.132-0.438,0.484-0.305,0.785
	C393.626,194.89,380.791,217.049,370.522,222.409z M110.094,221.02h55.667c0.767,0,1.48-0.314,1.958-0.862
	c0.439-0.503,0.631-1.149,0.541-1.821l-4.506-33.291c-3.175,3.944-10.805,10.771-25.655,10.91
	c-14.933,0.125-22.766-6.9-25.997-10.92l-4.507,33.301c-0.091,0.671,0.101,1.318,0.541,1.821
	C108.613,220.705,109.327,221.02,110.094,221.02z M118.059,187.471c3.666,2.828,10.1,6.193,20.018,6.086
	c9.909-0.093,16.276-3.434,19.874-6.221c2.056-1.592,3.469-3.192,4.348-4.353h-48.732
	C114.473,184.178,115.937,185.834,118.059,187.471z M162.612,180.235c-0.636-0.823-1.543-1.295-2.489-1.295H115.73
	c-0.941,0-1.844,0.468-2.479,1.283c-0.006,0.008-0.012,0.016-0.019,0.024c-0.083,0.108-0.16,0.221-0.229,0.337h49.847
	C162.778,180.463,162.699,180.347,162.612,180.235z M271.32,332.037l-67.312,44.631l-3.581-13.353
	c-0.07-0.26-0.306-0.441-0.575-0.441h-74.178c-0.27,0-0.505,0.182-0.575,0.441l-6.63,24.725c-0.366,1.366-0.161,2.608,0.594,3.593
	c1.119,1.457,3.446,2.328,6.227,2.328c0.033,0,0.061-0.004,0.094-0.004v34.844l-71.288,47.268V332.037H271.32z M115.71,383.099
	c0-14.808-12.004-26.812-26.812-26.812s-26.812,12.004-26.812,26.812s12.004,26.812,26.812,26.812
	C103.705,409.911,115.71,397.907,115.71,383.099z M139.155,488.669h47.138c2.22,0,2.392-1.882,2.392-2.459v-0.859h-51.922v0.859
	C136.764,487.658,137.747,488.669,139.155,488.669z M146.468,364.065l-2.381,23.537L146.468,364.065L146.468,364.065z
	 M181.021,391.91l0.872-0.578c-0.078-0.124-0.163-0.241-0.232-0.373C181.494,391.301,181.278,391.617,181.021,391.91z
	 M137.781,393.961c-2.641,0-4.812-0.781-5.958-2.144c-0.232-0.276-0.423-0.572-0.571-0.887c-0.428,0.785-0.988,1.412-1.677,1.891
	v33.2l49.254-32.658c-1.013,0.387-2.219,0.597-3.575,0.597c-3.084,0-5.206-1.047-6.2-3.003c-0.214,0.428-0.488,0.815-0.824,1.161
	c-1.172,1.204-3.062,1.842-5.467,1.842c-2.404,0-4.294-0.637-5.466-1.842c-0.336-0.346-0.611-0.733-0.824-1.161
	c-0.994,1.956-3.116,3.003-6.201,3.003c-2.528,0-4.56-0.709-5.723-1.995c-0.278-0.308-0.505-0.644-0.683-1.007
	C142.827,392.953,140.79,393.961,137.781,393.961z M189.876,485.351v0.859c0,2.217-1.406,3.65-3.583,3.65h-47.138
	c-2.076,0-3.582-1.535-3.582-3.65v-0.859h-81.07H46.08v2.314c0,3.04,2.473,5.513,5.513,5.513h222.262
	c3.04,0,5.514-2.473,5.514-5.513v-2.314h-8.423H189.876z M205.285,452.827h-5.737h-3.001H128.98h-3.001h-5.737v5.208h85.043V452.827
	z M128.192,393.521c-0.055,0.019-0.113,0.034-0.169,0.052c-0.219,0.07-0.443,0.134-0.68,0.184c-0.097,0.021-0.2,0.034-0.3,0.052
	c-0.156,0.027-0.305,0.062-0.469,0.081v57.746h1.811v-58.174C128.324,393.485,128.255,393.499,128.192,393.521z M198.484,393.809
	c-0.1-0.018-0.204-0.031-0.301-0.052c-0.236-0.05-0.46-0.114-0.679-0.184c-0.056-0.018-0.115-0.033-0.17-0.052
	c-0.062-0.022-0.132-0.036-0.193-0.059v58.174h1.811V393.89C198.789,393.871,198.64,393.836,198.484,393.809z M91.243,384.027
	c1.241,2.853,1.639,5.118,1.198,6.792c-0.368,1.383-1.278,2.391-2.734,3.025c-1.463,0.636-2.888,0.586-4.274-0.151
	s-2.71-2.555-3.967-5.446c-1.235-2.839-1.63-5.097-1.189-6.771c0.368-1.384,1.278-2.392,2.734-3.025s2.82-0.607,4.097,0.078
	C88.62,379.337,90,381.171,91.243,384.027z M89.542,389.245c-0.125-0.824-0.574-2.123-1.344-3.894
	c-0.769-1.768-1.384-2.944-1.847-3.529c-0.463-0.586-0.877-0.934-1.239-1.039c-0.363-0.108-0.717-0.088-1.06,0.061
	c-0.343,0.149-0.603,0.395-0.771,0.735c-0.174,0.338-0.21,0.828-0.106,1.469c0.128,0.831,0.578,2.134,1.347,3.901
	c0.771,1.771,1.386,2.948,1.849,3.533s0.875,0.93,1.237,1.035s0.714,0.081,1.057-0.068s0.602-0.395,0.774-0.736
	C89.609,390.377,89.646,389.887,89.542,389.245z M98.105,376.368c0.585,1.344,0.723,2.466,0.413,3.371s-0.973,1.581-1.985,2.02
	c-1.047,0.455-2.002,0.488-2.874,0.101s-1.603-1.255-2.191-2.606l0,0c-0.585-1.344-0.72-2.467-0.41-3.372s0.97-1.579,1.981-2.019
	c1.047-0.455,2.006-0.49,2.877-0.103C96.789,374.147,97.517,375.017,98.105,376.368z M95.816,377.363
	c-0.422-0.969-0.812-1.57-1.174-1.799c-0.281-0.177-0.577-0.198-0.885-0.064c-0.301,0.131-0.486,0.357-0.551,0.676
	c-0.083,0.432,0.088,1.131,0.51,2.101c0.422,0.97,0.817,1.572,1.189,1.806c0.278,0.17,0.569,0.189,0.87,0.058
	c0.308-0.134,0.496-0.362,0.561-0.681C96.412,379.031,96.237,378.333,95.816,377.363z M78.077,388.255
	c-1.295-0.548-2.583-0.541-3.864,0.016c-0.672,0.292-1.26,0.74-1.762,1.337l-0.658-2.756l5.435-2.364l-1.169-2.688l-7.623,3.316
	l1.928,8.452l2.477-0.678c0.341-1.014,0.929-1.702,1.758-2.063c0.665-0.289,1.304-0.293,1.92-0.007
	c0.619,0.284,1.128,0.891,1.533,1.822c0.431,0.991,0.544,1.824,0.342,2.499c-0.202,0.675-0.606,1.142-1.208,1.404
	c-0.528,0.23-1.076,0.243-1.648,0.039c-0.569-0.206-1.035-0.619-1.402-1.234l-2.748,1.549l0,0c0.721,1.189,1.678,1.963,2.882,2.33
	c1.199,0.365,2.496,0.246,3.886-0.358c1.736-0.755,2.805-2.011,3.206-3.767c0.293-1.288,0.172-2.551-0.368-3.794
	C80.346,389.816,79.374,388.798,78.077,388.255z M106.667,377.401c1.033-0.449,1.986-0.477,2.861-0.083
	c0.875,0.393,1.603,1.263,2.189,2.611c0.591,1.358,0.732,2.487,0.423,3.395c-0.308,0.908-0.972,1.584-1.983,2.024
	c-1.046,0.455-2.003,0.484-2.878,0.091c-0.875-0.394-1.607-1.265-2.198-2.623c-0.586-1.348-0.723-2.474-0.414-3.383
	C104.974,378.525,105.641,377.847,106.667,377.401z M107.33,381.845L107.33,381.845c0.426,0.98,0.823,1.586,1.192,1.812
	c0.283,0.181,0.575,0.203,0.877,0.072c0.308-0.134,0.493-0.36,0.549-0.68c0.083-0.432-0.091-1.138-0.518-2.118
	c-0.426-0.98-0.821-1.591-1.186-1.828c-0.28-0.174-0.574-0.191-0.882-0.057c-0.308,0.134-0.493,0.36-0.549,0.68
	C106.73,380.159,106.904,380.865,107.33,381.845z M100.022,389.732l2.132-0.927l1.044-19.359l-2.086,0.907L100.022,389.732z"></path>
<path id="color_x5F_3" fill="#E84393" d="M337.039,444.162c0.252,3.069,1.06,14.071,0.677,24.65
	c-0.365,10.096-2.801,20.273-3.709,23.761h-17.48c0.73-10.075,1.138-24.776-0.718-40.086c-2.709-22.352-6.476-38.858-8.228-45.847
	C316.266,420.037,326.697,433.309,337.039,444.162z M481.903,448.336c-11.547-9.923-30.504-33.265-33.333-36.774
	c-2.885,2.487-6.016,5.178-9.306,7.996c2.505,2.9,17.151,19.612,32.259,31.752c8.489,6.821,16.236,9.21,23.023,7.105
	c4.895-1.519,9.195-5.383,12.874-11.501C499.815,452.027,489.654,454.996,481.903,448.336z M347.844,443.949
	c-16.177-21.608-48.001-60.3-49.801-83.1c-1.502-19.028,8.838-33.384,12.302-37.616c-12.141,6.851-27.79,20.2-20.667,44.584
	c3.025,10.354,9.088,22.574,16.758,34.856c0.083,0.073,0.146,0.17,0.179,0.283c0,0.001,0.001,0.003,0.002,0.006
	c17.988,28.718,44.688,57.694,61.777,63.88c4.69,1.698,8.457,1.627,11.195-0.215c1.155-0.777,2.485-1.721,3.963-2.808
	C379.181,463.842,361.863,462.676,347.844,443.949z M435.862,374.983c0.646,2.883,1.209,5.987,1.645,9.293l5-2.762L435.862,374.983z
	"></path>
<path id="color_x5F_4" fill="#00CEC9" d="M72.144,494.974h404.674c-61.846,50.434-156.795,80.804-282.802,70.505
	C121.744,559.571,80.663,527.593,72.144,494.974z M122.112,262.528c-0.716-0.526-1.685-0.659-2.54-0.245
	c-1.231,0.595-1.746,2.076-1.151,3.306c0.595,1.231,2.076,1.746,3.306,1.151c0.935-0.452,1.453-1.415,1.389-2.391
	c-0.006,0.007-0.013,0.013-0.02,0.02c-0.368,0.409-1,0.443-1.409,0.074c-0.409-0.368-0.442-0.999-0.074-1.409
	C121.776,262.855,121.948,262.701,122.112,262.528z M561.715,330.757L561.715,330.757c-2.116,59.805-29.896,118.057-82.005,161.816
	h-56.769c3.76-27.396,9.988-55.927,15.698-71.916c3.206,3.689,17.452,19.78,32.137,31.58c8.815,7.084,16.934,9.547,24.123,7.314
	c8.706-2.701,15.58-12.241,20.429-28.356c12.548-41.711,20.2-85.147,20.365-86.095c0.008-0.035,0.011-0.072,0.012-0.11
	c0-0.001,0-0.002,0-0.002c0-0.001,0-0.001,0-0.001c0-0.013-0.001-0.025-0.002-0.038c-0.71-12.767,0.456-19.265,1.691-26.144
	c0.475-2.645,0.966-5.379,1.378-8.574c0.59-4.579-1.988-8.163-4.973-12.312c-1.725-2.398-3.664-5.094-5.264-8.353v-24.354
	c0-1.542-0.868-2.748-2.212-3.076l-2.981-0.946c-0.524-0.167-1.121-0.146-1.477-0.052l-21.781,5.737
	c-1.934,0.509-3.507,2.599-3.507,4.658v25.608c-1.485,0.678-2.362,1.488-2.562,2.205c-0.184,0.652,0.14,1.251,0.824,1.524
	c0.443,0.178,1.035,0.31,1.738,0.416v5.276c-3.762,1.2-3.881,3.133-3.806,3.771c0.133,1.127,1.103,1.986,2.423,2.269
	c-0.147,0.512-0.275,1.212-0.146,1.868c0.153,0.793,0.506,1.629,1.529,2.248v16.89c0,0.964,0.564,1.987,1.549,2.808
	c1.24,1.034,2.906,1.526,4.529,1.361c0.135-0.011,0.271-0.029,0.41-0.057c0.02-0.003,0.039-0.007,0.059-0.01
	c0.021-0.004,0.042-0.009,0.062-0.015c0.021-0.005,0.04-0.01,0.061-0.015l8.21-2.162c0.02,0.454,0.057,0.899,0.113,1.331
	c0.158,1.208,0.421,2.269,0.75,3.199c-0.298,0.242-0.717,0.619-1.06,1.067c-0.566,0.739-0.944,1.874-0.994,2.028
	c-2.147,5.747-4.119,12.367-6.206,19.376c-4.407,14.799-9.329,31.323-17.81,46.758c-3.879-7.566-7.538-14.372-10.029-18.935
	c7.378-3.724,16.106-8.243,17.173-9.31c1.173-1.172,1.076-2.042,0.975-2.963c-0.073-0.66-0.155-1.407,0.238-2.55
	c0.358-1.038,0.79-1.844,1.17-2.554c0.663-1.237,1.234-2.306,1.168-3.976c-0.046-1.152-0.435-2.01-0.747-2.698
	c-0.408-0.899-0.655-1.442-0.22-2.312c1.094-2.189,1.229-4.231,0.391-5.905c-0.294-0.59-0.706-1.062-1.105-1.517
	c-0.721-0.824-1.343-1.535-1.181-2.832c0.183-1.457-0.409-3.169-1.543-4.47c-1.057-1.211-2.437-1.887-3.887-1.904
	c-0.362,0-8.785-0.084-11.094,1.614c-0.93,0.683-1.535,1.938-1.93,3.27c0.164-1.95,0.127-4.212-0.386-6.521
	c-0.919-4.133-3.797-6.599-5.945-6.302c-0.596,0.082-2.525,0.635-2.322,4.291c0.33,5.95-1.743,11.535-3.963,13.978
	c-0.906,0.997-1.484,3.276-2.134,5.945c-6.345-10.43-11.815-18.51-16.702-24.673c-6.192-7.807-13.12-13.488-20.594-16.898
	c-0.173-0.279-0.331-0.553-0.525-0.839c-5.837-8.628-1.403-21.562,3.729-36.54c3.934-11.476,8.392-24.482,9.183-38.123
	c0.986-17.018-0.729-33.465-4.832-46.31c-4.815-15.082-12.781-24.748-23.036-27.953c-22.649-7.077-47.153-9.814-75.727,40.076
	c-24.061,42.01-25.372,82.747-18.619,98.254c1.502,3.45,3.445,5.773,5.669,6.857c-0.027,0.012-0.05,0.022-0.077,0.034
	c-10,4.379-40.432,17.705-30.812,50.636c3.054,10.454,9.192,22.801,16.955,35.206c0.372,1.325,5.637,20.398,9.137,49.272
	c1.849,15.262,1.437,29.92,0.705,39.943h-36.927c1.32-1.225,2.153-2.969,2.153-4.908v-2.91c0-0.329-0.267-0.596-0.595-0.596h-4.392
	c2.97-1.638,4.987-4.799,4.987-8.423V332.443c0-5.301-4.312-9.614-9.614-9.614H171.16c-3.072-1.854-13.816-8.386-10.022-26.322
	c2.536-11.989,0.983-21.623-2.817-28.547c-2.435-4.438-5.794-7.766-9.596-9.896c-3.822-2.141-8.09-3.07-12.323-2.702
	c-2.665,0.232-5.313,0.979-7.826,2.26l-16.949-11.505l-33.644,16.274c-22.616-49.834-24.848-102.31,20.68-157.845
	C227.748-52.911,572.139,36.123,561.715,330.757z M170.637,218.015l-4.925-36.388c0-0.003,0-0.007-0.001-0.01
	c-0.124-0.907-0.46-1.779-0.979-2.544c-1.403-16.565-12.877-29.015-26.805-29.015s-25.401,12.449-26.804,29.014
	c-0.519,0.765-0.856,1.638-0.98,2.546c0,0.003,0,0.006-0.001,0.009l-4.925,36.389c-0.186,1.368,0.209,2.689,1.111,3.722
	c0.934,1.069,2.307,1.683,3.766,1.683h55.667c1.459,0,2.832-0.613,3.766-1.683C170.428,220.704,170.823,219.382,170.637,218.015z
	 M255.981,271.43c0-4.079-3.307-7.386-7.386-7.386s-7.386,3.307-7.386,7.386c0,4.079,3.307,7.386,7.386,7.386
	C252.674,278.817,255.981,275.51,255.981,271.43z M284.241,271.43c0-4.079-3.307-7.386-7.386-7.386
	c-4.079,0-7.386,3.307-7.386,7.386c0,4.079,3.307,7.386,7.386,7.386C280.934,278.817,284.241,275.51,284.241,271.43z
	 M293.385,209.14l-66.686-4.026l-2.158-10.69c-0.018-0.089-0.041-0.177-0.07-0.261c-0.242-0.804-1.517-4.305-5.542-4.821
	c-3.003-0.385-17.42-3.108-17.462-3.115c-1.113-0.208-2.184,0.525-2.392,1.638s0.525,2.184,1.638,2.392
	c0.041,0.008,14.444,2.73,17.702,3.147c1.52,0.195,2.009,1.544,2.102,1.855l11.128,55.121c0.779,3.862,3.029,9.201,9.571,9.201
	h47.351c1.135,0,2.055-0.92,2.055-2.055c0-1.135-0.92-2.055-2.055-2.055h-47.253c-2.376,0-4.388-0.637-5.48-5.172h52.733
	c1.604,0,2.702-1.328,2.918-2.918l4.817-35.321C296.52,210.469,294.987,209.237,293.385,209.14z M311.235,118.337
	c-0.236-0.187-0.574-0.17-0.788,0.041c-0.062,0.061-6.266,6.113-14.563,11.234l-19.432-12.434c-0.271-0.173-0.633-0.099-0.814,0.168
	l-3.125,4.625c-0.089,0.132-0.122,0.294-0.09,0.451c0.031,0.156,0.124,0.293,0.257,0.38l16.25,10.665
	c-1.7,0.793-3.322,1.425-4.835,1.884c-11.785,3.571-16.41-2.521-16.601-2.781c-0.107-0.146-0.275-0.236-0.456-0.244
	c-0.188-0.016-0.356,0.067-0.475,0.204c-0.091,0.105-9.257,10.536-21.828,13.692c-4.759,1.195-8.499,2.107-11.326,2.797
	c-2.39,0.583-4.13,1.008-5.285,1.31c-1.381,0.361-2.129,1.66-1.818,3.157l1.36,6.563c0.057,0.276,0.301,0.475,0.583,0.475h36.136
	c5.196,0,12.167-3.927,18.91-7.726c6.616-3.728,13.457-7.584,16.635-6.178c0.935,0.413,1.542,1.282,1.856,2.656l2.47,10.785
	c0.062,0.271,0.303,0.462,0.58,0.462h6.814c0.281,0,0.523-0.196,0.582-0.471l5.064-23.82
	C318.607,130.072,315.888,122.044,311.235,118.337z M137.927,152.457c-12.005,0-22.019,10.336-24.136,24.451
	c0.615-0.241,1.27-0.368,1.939-0.368h44.393c0.67,0,1.325,0.127,1.94,0.368C159.946,162.792,149.933,152.457,137.927,152.457z
	 M104.397,308.468c3.368,4.966,6.37,9.747,9.021,14.361h54.123c-4.568-3.387-11.677-11.019-8.354-26.728
	c2.428-11.479,0.975-20.642-2.614-27.181c-2.248-4.097-5.335-7.162-8.824-9.115c-3.468-1.943-7.339-2.786-11.176-2.452
	c-2.052,0.179-4.092,0.717-6.062,1.584l0.692,0.47l-1.735,23.597l-31.724,15.345C99.9,301.734,102.118,305.107,104.397,308.468z"></path>
<path id="color_x5F_5" fill="#FFD2BB" d="M72.811,280.962c0.349,0.574,0.699,1.045,1.046,1.416l4.672,4.918l-4.429,2.142
	l-0.955-6.777c-0.081-0.576-0.225-1.127-0.429-1.653L72.811,280.962z M130.511,258.937l0.692,0.47l-1.735,23.597l-31.724,15.345
	l-44.056,21.31l-17.841-36.885l42.135-20.381l33.644-16.274l16.949,11.505c-2.302,1.173-4.481,2.816-6.463,4.905
	c-0.716-0.526-1.685-0.659-2.54-0.245c-1.231,0.595-1.746,2.076-1.151,3.306c0.595,1.231,2.076,1.746,3.306,1.151
	c0.935-0.452,1.453-1.415,1.389-2.391C125.338,261.885,127.86,260.104,130.511,258.937z M68.419,297.631
	c0.048-0.836-0.161-1.732-0.63-2.7c-0.339-0.7-0.739-1.264-1.202-1.686c-0.465-0.426-0.993-0.75-1.588-0.971
	c-0.589-0.219-1.242-0.36-1.951-0.419c-0.709-0.058-1.477-0.068-2.308-0.022c-0.608,0.035-1.163,0.055-1.659,0.05
	c-0.5-0.002-0.939-0.039-1.317-0.105c-0.384-0.068-0.708-0.181-0.972-0.338c-0.262-0.153-0.462-0.377-0.603-0.669
	c-0.128-0.264-0.177-0.534-0.145-0.814c0.036-0.282,0.142-0.557,0.316-0.829c0.178-0.274,0.425-0.541,0.745-0.803
	c0.323-0.258,0.702-0.492,1.147-0.707c0.321-0.155,0.671-0.294,1.051-0.422c0.382-0.124,0.781-0.225,1.187-0.3
	c0.412-0.072,0.828-0.116,1.244-0.129s0.815,0.013,1.205,0.073l-1.746-3.609c-0.699,0.058-1.423,0.2-2.167,0.428
	c-0.748,0.23-1.575,0.559-2.478,0.995c-0.919,0.444-1.74,0.964-2.464,1.558c-0.724,0.594-1.296,1.252-1.721,1.971
	c-0.419,0.721-0.656,1.492-0.704,2.318c-0.05,0.822,0.148,1.682,0.584,2.585c0.556,1.15,1.36,1.971,2.416,2.461
	c1.058,0.495,2.4,0.695,4.022,0.601c0.637-0.039,1.235-0.064,1.794-0.075c0.561-0.017,1.062,0.01,1.506,0.075
	c0.441,0.061,0.825,0.181,1.148,0.355c0.321,0.17,0.561,0.425,0.725,0.763c0.122,0.251,0.175,0.51,0.155,0.784
	c-0.018,0.268-0.109,0.541-0.281,0.817c-0.169,0.28-0.417,0.547-0.739,0.815c-0.321,0.262-0.727,0.514-1.222,0.753
	c-0.836,0.405-1.736,0.657-2.697,0.761c-0.961,0.104-1.937,0.032-2.922-0.219l1.869,3.864l0,0c0.782,0.018,1.645-0.099,2.579-0.353
	c0.935-0.254,1.875-0.612,2.822-1.07c0.927-0.448,1.763-0.959,2.513-1.541c0.746-0.58,1.334-1.225,1.763-1.935
	C68.132,299.234,68.369,298.463,68.419,297.631z M88.212,291.057l-14.526-14.33l-4.622,2.236l2.068,20.356l4.227-2.044l-0.644-4.442
	l6.155-2.977l3.095,3.256L88.212,291.057z M100.678,285.026l-1.53-3.164l-6.406,3.099l-6.841-14.143L82,272.705l8.371,17.307
	L100.678,285.026z M113.388,278.879l-1.53-3.164l-6.48,3.134l-1.915-3.959l5.661-2.738l-1.528-3.16l-5.661,2.738l-1.863-3.852
	l6.081-2.941l-1.534-3.172l-9.982,4.828l8.371,17.307L113.388,278.879z M512.793,341.213c-0.193,0.176-0.406,0.392-0.587,0.628
	c-0.262,0.342-0.482,0.823-0.627,1.183c1.005,0.438,2.091,0.843,3.235,1.203C514.119,343.49,513.395,342.507,512.793,341.213z
	 M383.553,463.82c22.059-16.222,77.284-64.448,81.416-68.06c-1.126-8.143-5.69-15.685-11.469-18.958l-16.168,8.931
	c-0.002,0.001-0.003,0.002-0.005,0.003l-60.783,33.576c-0.266,0.146-0.6,0.069-0.775-0.18l-39.308-55.937
	c-0.188-0.269-0.124-0.64,0.146-0.829c0.269-0.189,0.64-0.123,0.829,0.146l39,55.499l59.953-33.117
	c-2.784-21.862-11.316-34.752-11.402-34.88c-0.184-0.273-0.111-0.643,0.162-0.827c0.27-0.182,0.642-0.111,0.825,0.161
	c0.074,0.11,6.257,9.438,9.888,25.635l6.646,6.531l10.705-5.913c0.177-0.097,0.392-0.099,0.57-0.003
	c0.032,0.017,0.062,0.038,0.094,0.056c0.943-0.557,3.016-1.874,3.648-2.687c1.375-1.766,2.234-4.792,2.956-7.7
	c-6.583-10.881-12.223-19.247-17.236-25.569c-5.646-7.119-11.909-12.41-18.627-15.798c3.366,6.821,0.623,11.304-1.514,13.486
	c-4.543,4.64-13.021,6.054-17.788,2.971c-2.24-1.45-4.682-3.661-7.031-6.089c-0.612,1.499-2.61,4.052-9.055,6.2
	c-8.465,2.823-17.211-0.237-19.13-0.985c-0.095,0.09-0.19,0.178-0.287,0.263c-1.795,1.579-3.871,2.366-6.085,2.366
	c-2.363,0.001-4.883-0.896-7.388-2.686c-2.936-2.097-5.674-4.188-8.322-6.213c-8.901-6.801-16.597-12.678-26.967-15.146
	c-0.363,0.163-0.765,0.34-1.224,0.541c-2.306,1.01-5.726,2.508-9.481,4.627c-3.464,4.232-13.804,18.588-12.302,37.616
	c1.8,22.8,33.624,61.492,49.801,83.1C361.863,462.676,379.181,463.842,383.553,463.82z M367.989,467.963
	c-8.657-3.134-19.751-12.049-30.95-23.801c0.252,3.069,1.06,14.071,0.677,24.65c-0.365,10.096-2.801,20.273-3.709,23.761h87.733
	c3.681-26.888,9.746-54.903,15.383-71.185c-20.474,17.502-46.141,39.014-56.87,46.228
	C377.184,469.681,373.055,469.797,367.989,467.963z M517.55,346.189c-0.023-0.004-0.046-0.009-0.069-0.016
	c-2.29-0.519-4.437-1.22-6.313-2.031c-2.051,5.574-3.954,11.966-5.966,18.719c-5.072,17.033-10.822,36.339-21.894,53.733
	c-0.176,0.278-0.545,0.36-0.821,0.183c-0.277-0.176-0.359-0.544-0.183-0.821c1.139-1.79,2.22-3.599,3.251-5.426
	c-0.024-0.046-0.051-0.097-0.079-0.153c-3.987-7.796-7.77-14.829-10.317-19.496c-4.244,2.135-7.867,3.923-9.05,4.505
	c0.026,0.179,0.06,0.357,0.083,0.537c0.024,0.196-0.05,0.393-0.198,0.523c-0.216,0.189-7.301,6.389-17.424,15.116
	c2.829,3.509,21.786,26.851,33.333,36.774c7.751,6.661,17.912,3.691,25.517-1.421c2.563-4.263,4.826-9.61,6.768-16.063
	c11.544-38.37,18.938-78.208,20.157-84.969C529.03,347.598,522.902,347.392,517.55,346.189z M179.059,364.065l2.382,23.537
	c0.334-0.05,0.619,0.204,0.652,0.532c0.32,3.162,2.117,4.635,5.653,4.635c2.289,0,4.128-0.626,5.046-1.719
	c0.601-0.715,0.807-1.642,0.613-2.754c-0.006-0.035-0.009-0.069-0.009-0.104c0-0.284,0.204-0.535,0.493-0.586l0,0l-4.109-23.542
	L179.059,364.065L179.059,364.065z M157.189,364.065l-0.655,23.534l0,0c0.323,0.009,0.579,0.273,0.579,0.594
	c0,0.006,0,0.012,0,0.018c-0.036,1.298,0.313,2.333,1.037,3.078c1.19,1.224,3.166,1.48,4.613,1.48c1.448,0,3.423-0.257,4.614-1.48
	c0.724-0.745,1.073-1.78,1.037-3.078c0-0.006,0-0.012,0-0.018c0-0.32,0.256-0.585,0.579-0.594l0,0l-0.655-23.534H157.189z
	 M131.638,387.607L131.638,387.607c0.289,0.051,0.493,0.302,0.493,0.586c0,0.034-0.003,0.068-0.009,0.104
	c-0.194,1.112,0.012,2.039,0.613,2.754c0.918,1.093,2.758,1.719,5.046,1.719c3.537,0,5.333-1.473,5.653-4.635
	c0.034-0.327,0.32-0.582,0.652-0.532l2.381-23.537h-10.721L131.638,387.607z M115.71,383.099c0,14.808-12.004,26.812-26.812,26.812
	s-26.812-12.004-26.812-26.812s12.004-26.812,26.812-26.812C103.705,356.286,115.71,368.291,115.71,383.099z M80.994,391.307
	c-0.649-1.491-1.62-2.509-2.917-3.052c-1.295-0.548-2.583-0.541-3.864,0.016c-0.672,0.292-1.26,0.74-1.762,1.337l-0.658-2.756
	l5.435-2.364l-1.169-2.688l-7.623,3.316l1.928,8.452l2.477-0.678c0.341-1.014,0.929-1.702,1.758-2.063
	c0.665-0.289,1.304-0.293,1.92-0.007c0.619,0.284,1.128,0.891,1.533,1.822c0.431,0.991,0.544,1.824,0.342,2.499
	c-0.202,0.675-0.606,1.142-1.208,1.404c-0.528,0.23-1.076,0.243-1.648,0.039c-0.569-0.206-1.035-0.619-1.402-1.234l-2.748,1.549l0,0
	c0.721,1.189,1.678,1.963,2.882,2.33c1.199,0.365,2.496,0.246,3.886-0.358c1.736-0.755,2.805-2.011,3.206-3.767
	C81.655,393.812,81.534,392.549,80.994,391.307z M91.243,384.027c-1.242-2.856-2.623-4.69-4.135-5.498
	c-1.276-0.685-2.641-0.712-4.097-0.078c-1.456,0.633-2.366,1.641-2.734,3.025c-0.442,1.674-0.046,3.932,1.189,6.771
	c1.258,2.891,2.581,4.709,3.967,5.446s2.811,0.788,4.274,0.151c1.456-0.633,2.366-1.641,2.734-3.025
	C92.882,389.145,92.483,386.88,91.243,384.027z M98.105,376.368c-0.588-1.351-1.315-2.221-2.187-2.607
	c-0.871-0.387-1.831-0.352-2.877,0.103c-1.011,0.44-1.671,1.114-1.981,2.019c-0.31,0.905-0.175,2.028,0.41,3.372l0,0
	c0.588,1.351,1.319,2.219,2.191,2.606s1.827,0.354,2.874-0.101c1.012-0.44,1.675-1.116,1.985-2.02
	C98.828,378.834,98.689,377.712,98.105,376.368z M103.198,369.445l-2.086,0.907l-1.09,19.379l2.132-0.927L103.198,369.445z
	 M106.667,377.401c-1.025,0.446-1.692,1.123-2.001,2.032c-0.309,0.908-0.172,2.035,0.414,3.383c0.591,1.358,1.323,2.23,2.198,2.623
	c0.875,0.394,1.832,0.365,2.878-0.091c1.012-0.44,1.675-1.116,1.983-2.024c0.309-0.908,0.167-2.037-0.423-3.395
	c-0.586-1.348-1.314-2.217-2.189-2.611C108.653,376.925,107.699,376.952,106.667,377.401z M88.198,385.352
	c-0.769-1.768-1.384-2.944-1.847-3.529c-0.463-0.586-0.877-0.934-1.239-1.039c-0.363-0.108-0.717-0.088-1.06,0.061
	c-0.343,0.149-0.603,0.395-0.771,0.735c-0.174,0.338-0.21,0.828-0.106,1.469c0.128,0.831,0.578,2.134,1.347,3.901
	c0.771,1.771,1.386,2.948,1.849,3.533s0.875,0.93,1.237,1.035s0.714,0.081,1.057-0.068s0.602-0.395,0.774-0.736
	c0.17-0.336,0.206-0.827,0.102-1.468C89.416,388.422,88.968,387.123,88.198,385.352z M107.33,381.845
	c0.426,0.98,0.823,1.586,1.192,1.812c0.283,0.181,0.575,0.203,0.877,0.072c0.308-0.134,0.493-0.36,0.549-0.68
	c0.083-0.432-0.091-1.138-0.518-2.118c-0.426-0.98-0.821-1.591-1.186-1.828c-0.28-0.174-0.574-0.191-0.882-0.057
	c-0.308,0.134-0.493,0.36-0.549,0.68C106.73,380.159,106.904,380.865,107.33,381.845L107.33,381.845z M94.642,375.564
	c-0.281-0.177-0.577-0.198-0.885-0.064c-0.301,0.131-0.486,0.357-0.551,0.676c-0.083,0.432,0.088,1.131,0.51,2.101
	c0.422,0.97,0.817,1.572,1.189,1.806c0.278,0.17,0.569,0.189,0.87,0.058c0.308-0.134,0.496-0.362,0.561-0.681
	c0.076-0.429-0.099-1.127-0.52-2.096C95.394,376.394,95.004,375.794,94.642,375.564z"></path>
<path id="color_x5F_6" fill="#66D895" d="M179.059,364.065l2.382,23.537l0,0c-0.307,0.03-0.535,0.289-0.535,0.591
	c0,0.021,0.001,0.04,0.003,0.061c0.122,1.202-0.152,2.182-0.813,2.914c-0.934,1.033-2.653,1.602-4.84,1.602
	c-3.664,0-5.565-1.545-5.65-4.592c-0.009-0.329-0.278-0.615-0.612-0.578l-0.655-23.534L179.059,364.065L179.059,364.065z
	 M144.087,387.603L144.087,387.603c0.307,0.03,0.535,0.289,0.535,0.591c0,0.021-0.001,0.04-0.003,0.061
	c-0.122,1.202,0.152,2.182,0.813,2.914c0.934,1.033,2.653,1.602,4.839,1.602c3.665,0,5.566-1.545,5.651-4.592
	c0.009-0.323,0.274-0.579,0.595-0.579c0.006,0,0.011,0,0.017,0.001l0.655-23.534h-10.721L144.087,387.603z M205.907,388.349
	l-6.511-24.283h-9.616l4.109,23.542c0.035-0.006,0.069-0.009,0.103-0.009c0.284,0,0.536,0.204,0.586,0.493
	c0.564,3.235,2.31,4.678,5.659,4.678c2.377,0,4.401-0.713,5.282-1.862C206.047,390.219,206.178,389.358,205.907,388.349z
	 M119.62,388.349c-0.271,1.01-0.14,1.87,0.388,2.559c0.881,1.149,2.905,1.862,5.282,1.862c3.349,0,5.095-1.442,5.659-4.678
	c0.057-0.323,0.365-0.537,0.689-0.484l4.109-23.542h-9.616L119.62,388.349z"></path>
<path id="color_x5F_7" fill="#999999" d="M509.197,302.835c2.636,0.736,5.565,1.951,7.683,2.903
	c-4.004-0.287-10.877-0.606-16.251,0.026v-4.094C503.443,301.879,506.625,302.117,509.197,302.835z M503.334,317.609
	c-1.023,0.068-1.919,0.08-2.705,0.049v16.979c0,0.697,0.239,1.271,0.676,1.614c0.325,0.257,0.746,0.371,1.227,0.342
	c0.113-0.012,0.227-0.027,0.34-0.047c0.028-0.006,0.058-0.013,0.086-0.02l8.49-2.236c0.134-5.866,2.742-12.793,3.542-14.787
	C513.485,318.892,508.865,317.248,503.334,317.609z M519.112,278.108c-1.708,3.698,5.197,18.215,5.269,18.358
	c0.783,1.567,1.421,3.543,1.812,4.903c-2.14-1.357-6.891-3.741-15.479-5.186c-2.162-0.364-4.14-0.52-5.919-0.52
	c-1.542,0-2.934,0.117-4.166,0.317v-23.42c0-1.527,1.199-3.133,2.618-3.506l21.781-5.737c0.352-0.093,0.686-0.103,0.994-0.031
	c0.003,0.001,0.007,0.002,0.01,0.002c0.968,0.232,1.312,1.145,1.312,1.922v21.816c-3.511-7.479-5.138-10.192-6.696-10.192h-0.001
	C520.018,276.837,519.501,277.265,519.112,278.108z M507.888,274.514c0-0.935-0.324-1.761-0.889-2.266
	c-0.398-0.356-0.893-0.521-1.398-0.466l0,0c-1.208,0.136-2.155,1.496-2.155,3.096c0,0.935,0.324,1.76,0.89,2.266
	c0.348,0.311,0.77,0.477,1.206,0.477c0.064,0,0.128-0.003,0.192-0.011C506.941,277.474,507.888,276.114,507.888,274.514z"></path>
<path id="color_x5F_8" fill="#CCCCCC" d="M388.948,294.111c-1.005,1.753-1.66,4.142-2.081,6.778
	c-1.415-0.304-4.968-1.25-9.198-3.586c-5.025-2.775-7.463-3.787-9.6-0.637c-1.23,1.812-1.523,3.897-1.551,5.344
	c-3.786-13.282-4.143-29.286-4.03-37.441c1.874,5.768,7.17,15.595,22.094,26.763C386.039,292.423,387.496,293.35,388.948,294.111z
	 M195.951,392.821c-0.688-0.478-1.249-1.105-1.677-1.891c-0.148,0.314-0.339,0.61-0.571,0.887c-1.145,1.362-3.316,2.144-5.958,2.144
	c-2.809,0-4.758-0.89-5.853-2.629l-0.872,0.578c-0.016,0.018-0.028,0.038-0.044,0.056c-0.539,0.596-1.272,1.063-2.148,1.398
	l-49.254,32.658v25.614h66.375v-58.815H195.951z M204.008,376.669l3.049,11.372c0.366,1.366,0.161,2.608-0.594,3.593
	c-1.119,1.457-3.446,2.328-6.227,2.328c-0.033,0-0.061-0.004-0.094-0.004v57.679h5.737c0.329,0,0.595,0.267,0.595,0.596v6.399
	c0,0.329-0.267,0.596-0.595,0.596h-86.234c-0.329,0-0.595-0.267-0.595-0.596v-6.399c0-0.329,0.267-0.596,0.595-0.596h5.737v-22.835
	L54.094,476.07v0.074h217.257V332.037h-0.033L204.008,376.669z"></path>
</svg>