<svg width="50" height="50" viewBox="0 0 50 50" fill="none" xmlns="http://www.w3.org/2000/svg">
<path d="M23.7859 17.2695C23.6558 17.2053 23.5103 17.1786 23.3659 17.1924C23.2214 17.2062 23.0836 17.2599 22.968 17.3477L19.182 20.1961C16.9012 19.2776 14.3534 19.2776 12.0727 20.1961L8.28125 17.3438C8.16518 17.2567 8.02716 17.2037 7.88266 17.1907C7.73816 17.1776 7.59288 17.2051 7.46311 17.27C7.33334 17.3349 7.22421 17.4346 7.14793 17.558C7.07165 17.6814 7.03125 17.8237 7.03125 17.9688V25C7.03125 29.3078 10.8867 32.8125 15.625 32.8125C20.3633 32.8125 24.2188 29.3078 24.2188 25V17.9688C24.2187 17.8235 24.1782 17.6811 24.1018 17.5576C24.0253 17.4341 23.916 17.3343 23.7859 17.2695Z" fill="#E9724C"/>
<path d="M17.969 27.3439C17.8013 27.3441 17.6379 27.2903 17.5031 27.1904C17.3683 27.0906 17.2692 26.95 17.2205 26.7895C17.1718 26.629 17.176 26.457 17.2326 26.2991C17.2892 26.1412 17.3951 26.0057 17.5347 25.9126L19.8784 24.3501C20.0508 24.2351 20.2618 24.1933 20.465 24.2339C20.6682 24.2745 20.847 24.3941 20.962 24.5665C21.077 24.7389 21.1188 24.9499 21.0782 25.1531C21.0376 25.3563 20.918 25.5351 20.7456 25.6501L18.4019 27.2126C18.2737 27.2981 18.1231 27.3437 17.969 27.3439ZM13.2815 27.3439C13.1275 27.3437 12.9769 27.2981 12.8487 27.2126L10.505 25.6501C10.3326 25.5351 10.2129 25.3563 10.1724 25.1531C10.1318 24.9499 10.1736 24.7389 10.2886 24.5665C10.4036 24.3941 10.5823 24.2745 10.7856 24.2339C10.9888 24.1933 11.1998 24.2351 11.3722 24.3501L13.7159 25.9126C13.8555 26.0057 13.9614 26.1412 14.018 26.2991C14.0746 26.457 14.0788 26.629 14.0301 26.7895C13.9814 26.95 13.8823 27.0906 13.7475 27.1904C13.6127 27.2903 13.4493 27.3441 13.2815 27.3439Z" fill="#FFC857"/>
<path d="M42.9689 7.03125C42.9689 6.40965 42.722 5.81351 42.2825 5.37397C41.8429 4.93443 41.2468 4.6875 40.6252 4.6875C40.0036 4.6875 39.4075 4.93443 38.9679 5.37397C38.5284 5.81351 38.2814 6.40965 38.2814 7.03125V16.4297C38.2104 16.3586 38.1486 16.2813 38.0768 16.2109C36.5314 14.7092 34.6969 13.5373 32.6847 12.7664C30.6724 11.9955 28.5245 11.6417 26.3713 11.7266C23.9344 11.8129 21.551 12.4649 19.4095 13.6309C17.268 14.797 15.4271 16.4452 14.0322 18.4453C15.6953 18.1939 17.3942 18.3385 18.9908 18.8672L22.2658 16.4062C22.556 16.1886 22.901 16.0561 23.2623 16.0235C23.6235 15.9909 23.9867 16.0596 24.3112 16.2218C24.6356 16.384 24.9084 16.6334 25.0991 16.9419C25.2898 17.2505 25.3908 17.606 25.3908 17.9688V23.7563C25.8444 23.5651 26.3287 23.4572 26.8205 23.4375C27.3959 23.4197 27.9689 23.5177 28.5057 23.7257C29.0424 23.9336 29.5319 24.2473 29.9451 24.6481C30.3583 25.0489 30.6867 25.5286 30.9109 26.0588C31.1351 26.5889 31.2505 27.1587 31.2502 27.7344V40.7586C30.7299 40.9427 30.2913 41.3045 30.0117 41.7803C29.732 42.256 29.6291 42.8152 29.7213 43.3594C29.8281 43.9143 30.1266 44.414 30.5647 44.771C31.0027 45.1281 31.5523 45.3198 32.1174 45.3125H33.5939C34.2155 45.3125 34.8117 45.0656 35.2512 44.626C35.6908 44.1865 35.9377 43.5904 35.9377 42.9688V35.5469C35.9377 35.2361 36.0612 34.938 36.2809 34.7182C36.5007 34.4985 36.7988 34.375 37.1096 34.375C37.2636 34.3741 37.4163 34.4038 37.5587 34.4624C37.7011 34.521 37.8305 34.6073 37.9393 34.7164C38.1581 34.9375 38.281 35.2358 38.2814 35.5469V40.7586C37.7612 40.9427 37.3226 41.3045 37.0429 41.7803C36.7632 42.256 36.6604 42.8152 36.7525 43.3594C36.8594 43.9143 37.1579 44.414 37.5959 44.771C38.0339 45.1281 38.5836 45.3198 39.1486 45.3125H40.6252C41.2468 45.3125 41.8429 45.0656 42.2825 44.626C42.722 44.1865 42.9689 43.5904 42.9689 42.9688V7.03125Z" fill="#E9724C"/>
<path d="M15.6253 33.9846C13.9976 33.9886 12.3919 33.6097 10.9378 32.8783V40.7588C10.4175 40.9429 9.97893 41.3047 9.69925 41.7805C9.41956 42.2562 9.31674 42.8154 9.40888 43.3596C9.5157 43.9145 9.81423 44.4142 10.2523 44.7712C10.6903 45.1283 11.2399 45.32 11.805 45.3127H13.2815C13.9031 45.3127 14.4993 45.0658 14.9388 44.6262C15.3784 44.1867 15.6253 43.5905 15.6253 42.9689V36.3283C15.6253 36.0175 15.7488 35.7194 15.9685 35.4997C16.1883 35.2799 16.4864 35.1564 16.7972 35.1564C16.9512 35.1555 17.1039 35.1852 17.2463 35.2438C17.3887 35.3024 17.5181 35.3888 17.6268 35.4979C17.8457 35.7189 17.9686 36.0173 17.969 36.3283V40.7588C17.4488 40.9429 17.0102 41.3047 16.7305 41.7805C16.4508 42.2562 16.348 42.8154 16.4401 43.3596C16.5469 43.9145 16.8455 44.4142 17.2835 44.7712C17.7215 45.1283 18.2712 45.32 18.8362 45.3127H20.3128C20.9344 45.3127 21.5305 45.0658 21.9701 44.6262C22.4096 44.1867 22.6565 43.5905 22.6565 42.9689V31.2197C20.7555 33.0113 18.2374 34.0015 15.6253 33.9846Z" fill="#E9724C"/>
</svg>
