<?xml version="1.0" standalone="no"?>
<svg version="1.1" id="Layer_1" xmlns="http://www.w3.org/2000/svg" xmlns:xlink="http://www.w3.org/1999/xlink" x="0px" y="0px" width="595.28px" height="595.28px" viewBox="0 0 595.28 595.28" enable-background="new 0 0 595.28 595.28" xml:space="preserve">
<path id="color_x5F_2" fill="#FBC02D" d="M183.044,467.419c0.548,0.342,1.098,0.648,1.646,0.937
	c-0.675-0.084-1.238-0.161-1.661-0.223C183.036,467.895,183.036,467.657,183.044,467.419z M49.02,327.692
	c-0.459,0.091-0.937,0.613-1.438,1.547C48.02,328.671,48.5,328.153,49.02,327.692z M180.054,472.287
	c0.059-11.715,1.345-23.5,3.127-35.068c0.749-4.86,1.512-9.769,2.785-14.525c0.293-1.093,0.572-2.362,1.038-3.512
	c-7.71,4.033-15.464,7.98-23.246,11.873c-19.571,9.789-39.208,19.616-59.301,28.304c-10.994,4.754-23.508,7.791-35.476,5.702
	c0.015,2.655,0.091,5.302,0.383,7.939h111.795l0.008-0.037C180.568,472.991,180.051,472.805,180.054,472.287z M254.718,415.732
	c-6.316-5.033-11.581-11.207-16.955-17.211c-0.846-0.183-1.68-0.473-2.499-0.867c-0.084,0.133-0.229,0.276-0.468,0.43
	c-13.003,8.334-29.456,14.75-37.76,28.519c-0.554,0.918-3.49,1.096-2.727-0.17c4.605-7.638,11.57-13.075,19.102-17.812
	c-3.48,0.884-7.094,1.17-10.527,0.582c-0.144,0.128-0.314,0.239-0.504,0.326c0.361,0.17,0.477,0.492,0.021,0.973
	c-2.773,2.938-7.784,4.797-11.454,6.638c-0.038,0.11-0.124,0.237-0.271,0.382c-1.756,1.727-2.146,6.005-2.62,8.263
	c-1.034,4.919-1.847,9.886-2.524,14.867c-1.149,8.443-2.093,16.958-2.435,25.485c0.622-0.37,1.575-0.577,2.019-0.294
	c2.788,1.779,5.576,2.768,8.335,3.15c0.236,0.003,0.473,0.007,0.709,0.007c2.613,0,5.227-0.19,8.087-0.735
	c9.678-2.813,18.536-11.579,25.13-18.75c9.588-10.43,17.599-23.521,28.645-32.533C255.083,417.003,254.305,416.333,254.718,415.732z
	 M84.493,314.999c-2.069,0.518-4.365,1.186-6.72,1.927c3.142-0.855,6.285-1.706,9.409-2.626
	C86.292,314.542,85.396,314.773,84.493,314.999z M192.998,387.403c-0.485,0.609-0.988,1.201-1.517,1.768
	c0.146,0.196,0.279,0.402,0.424,0.599l3.48-5.744c-0.622,0.967-1.268,1.913-1.957,2.815
	C193.407,387.049,193.241,387.24,192.998,387.403z M204.493,369c0,0-0.011-0.194-0.035-0.54c-2.719,3.926-4.868,8.409-7.295,12.633
	L204.493,369z M93.718,461.742c11.525-3.573,22.605-9.616,33.459-14.788c15.763-7.511,31.429-15.23,46.987-23.156
	c5.983-3.047,11.961-6.11,17.874-9.292c2.387-1.284,6.195-2.723,7.998-4.633c0.152-0.162,0.392-0.282,0.664-0.365
	c-0.077-0.063-0.146-0.136-0.195-0.228c-3.517-6.579-7.352-13.083-11.839-19.062c-12.368,3.518-24.597,7.426-36.889,11.185
	c-20.742,6.342-42.147,12.117-61.44,22.241c-1.438,0.754-3.021-0.729-1.268-1.648c1.764-0.926,3.551-1.804,5.348-2.661
	c0.01-10.389,0.131-20.779-0.078-31.167c-0.204-10.209-0.129-20.87-2.388-30.883c-0.157-0.698,2.753-1.421,2.898-0.776
	c2.257,10.005,2.207,20.68,2.388,30.883c0.182,10.197,0.091,20.392,0.079,30.588c17.286-7.854,35.873-12.958,53.945-18.501
	c12.655-3.881,25.248-7.908,37.992-11.506c0.065-0.019,0.142-0.025,0.213-0.038c0.313-0.348,0.62-0.702,0.919-1.062
	c-2.759-12.045-7.923-23.339-14.547-33.744c-0.582-0.915,2.239-1.82,2.703-1.091c6.267,9.843,11.273,20.431,14.177,31.732
	c3.507-5.106,6.153-10.901,9.597-15.908c-0.052-0.091-0.086-0.195-0.084-0.322c0.121-7.068-1.582-14.636-4.793-21.527
	c-2.844-4.645-6.681-10.429-10.614-14.778c-3.756-3.452-8.105-6.132-12.956-7.648c-12.869,2.295-26.758-4.85-37.266-12.252
	c-0.653-0.318-1.238-0.602-1.731-0.841c-0.018,0.229-0.05,0.454-0.063,0.684c0.417,0.235,0.476,0.538,0.319,0.828
	c0.138,3.001,1.501,6.817,2.145,9.896c1.339,6.394,2.623,12.81,3.587,19.272c1.002,6.712,1.063,13.392,1.79,20.117
	c0.273,2.527,0.242,6.993,1.98,9.136c0.712,0.877-0.683,1.749-1.771,1.679c-0.718,0.374-1.809,0.542-2.138,0.125
	c-8.24-10.428-16.728-21.228-22.927-33.023c-3.645-6.935-6.825-14.109-9.856-21.33c-1.46-3.479-2.552-7.768-4.49-11.071
	c-2.18,2.066-4.574,3.873-7.236,5.274c-6.045,3.183-13.11,4.433-19.641,6.258c-3.475,0.971-6.964,1.943-10.392,3.083
	c-1.435,0.614-4.258,1.809-7.224,2.993c-0.206,0.123-0.434,0.214-0.667,0.265c-0.684,0.271-1.368,0.537-2.042,0.793
	c-0.893,0.618-1.636,1.345-2.076,2.231c-0.364,0.734-2.838,0.991-2.883,0.557c-4.612,3.08-6.61,14.237-7.591,18.307
	c-2.302,9.549-3.819,19.31-4.752,29.085c-1.845,19.344,0.672,39.021,5.22,57.867c2.401,9.952,5.185,20.932,15.063,26.004
	C69.31,464.701,82.952,465.08,93.718,461.742z M233.745,396.788c-0.077-0.052-0.156-0.09-0.232-0.144
	c-1.063-0.754-1.413-1.739-1.025-2.659c-1.673,2.009-3.192,4.269-4.871,6.301c1.815-1.064,3.602-2.14,5.332-3.249
	C233.167,396.897,233.45,396.819,233.745,396.788z M223.21,456.653c-3.263,3.047-6.918,6.053-10.826,8.521
	c0.896-0.361,1.815-0.747,2.775-1.173c4.421-1.965,10.77-8.996,16.563-16.117C228.999,450.92,226.187,453.873,223.21,456.653z"></path>
<path id="color_x5F_1" d="M494.442,225.722c10.688,0.876,21.236-4.189,29.182-10.986c12.146-10.39,15.493-27.463,7.344-41.321
	c-8.362-14.218-25.969-18.824-41.331-15.393c-3.786,0.846-7.424,2.053-10.997,3.53c-0.568,0.033-1.18,0.15-1.432,0.313
	c-8.73,5.645-15.686,13.447-17.418,23.968c-1.43,8.681,1.769,17.384,6.793,24.347C473.056,219.15,483.488,224.824,494.442,225.722z
	 M462.669,185.401c1.185-9.555,7.747-17.003,15.389-22.289c0.171-0.03,0.341-0.077,0.502-0.146
	c15.77-6.817,34.261-6.619,46.352,6.914c9.571,10.713,10.049,26.635,2.063,38.314c-6.437,9.412-18.152,16.028-29.5,16.176
	c-11.166,0.146-21.591-6.661-28.181-15.254C464.147,202.405,461.629,193.796,462.669,185.401z M495.997,207.007
	c0.271,0.292,1.146,0.421,1.85,0.156c8.891-3.354,23.258-12.98,20.323-24.209c-1.243-4.758-6.321-7.893-11.027-7.622
	c-4.202,0.242-7.234,3.051-9.413,6.384c-2.33-3.744-5.57-6.57-10.424-6.256c-4.347,0.282-8.068,3.414-9.994,7.134
	C471.93,192.994,487.879,203.723,495.997,207.007z M481.998,179.325c5.416-6.689,11.479,0.379,14.051,5.363
	c-0.063,0.128-0.129,0.256-0.19,0.384c-0.146,0.303,0.26,0.427,0.809,0.411c0.836,0.215,2.777-0.557,2.563-1.007
	c-0.063-0.132-0.131-0.262-0.195-0.393c2.773-5.405,7.615-9.56,13.228-4.898c3.485,2.895,4.038,7.31,2.604,11.347
	c-2.423,6.824-10.262,12.365-16.906,15.149c-6.942-2.855-13.816-8.129-17.305-14.768
	C478.567,186.942,479.232,182.74,481.998,179.325z M160.472,263.143c0.375,0.21,0.738,0.438,1.103,0.662
	c1.224-4.734,1.224-9.67,1.227-14.555c0.001-1.004,2.904-1.608,2.904-0.341c-0.003,5.605,0,11.278-1.85,16.635
	c-0.298,0.861-1.823,1.327-2.6,0.894c-1.048-0.585-2.031-1.263-3.079-1.849C156.942,263.898,159.602,262.656,160.472,263.143z
	 M149.688,240.291c0,1.848,0,3.697,0,5.545c0,1.036-2.908,1.625-2.908,0.327c0-1.848,0-3.697,0-5.545
	C146.78,239.582,149.688,238.992,149.688,240.291z M173.096,238.833c0,1.848,0,3.697,0,5.545c0,1.012-2.898,1.51-2.898,0.776
	c0-1.848,0-3.697,0-5.545C170.197,238.598,173.096,238.1,173.096,238.833z M167.842,230.604c0.412-0.534,1.279-0.764,1.92-0.764
	c1.438,0,2.875,0,4.313,0c0.402,0,1.178,0.203,0.758,0.747c-0.412,0.534-1.279,0.764-1.92,0.764c-1.438,0-2.875,0-4.313,0
	C168.197,231.352,167.422,231.149,167.842,230.604z M144.424,229.965c0.401-0.559,1.267-0.78,1.915-0.78c1.027,0,2.054,0,3.08,0
	c0.438,0,1.176,0.253,0.774,0.811c-0.401,0.559-1.267,0.78-1.915,0.78c-1.027,0-2.054,0-3.08,0
	C144.761,230.776,144.022,230.522,144.424,229.965z M135.694,263.638c-0.602-1.283,2.271-2.112,2.898-0.776
	c1.724,3.673,5.368,4.658,9.136,4.193c1.965-0.242,1.427,2.044-0.223,2.248C142.556,269.913,137.903,268.344,135.694,263.638z
	 M306.181,370.917c0.025-1.348-2.894-0.799-2.914,0.303c-0.023,1.288-0.363,2.54-1.268,3.312c-0.08-0.1-0.146-0.2-0.232-0.299
	c-0.532-0.603-2.929,0.227-2.787,0.906c-1.237-0.161-2.797-0.308-4.441-0.526c-0.755-0.126-1.613-0.268-2.56-0.406
	c-3.784-0.72-7.345-2.05-7.808-5.031c-0.747-4.819,8.53-1.703,10.68-1.203c2.908,0.677,5.958,1.789,8.96,1.939
	c0.735,0.037,3.261-1.255,1.896-1.374c1.658-3.889,1.552-7.958,0.467-12.028c-0.05-0.188-0.345-0.249-0.727-0.229
	c0.418-1.177,0.824-2.358,1.206-3.548c1.135-3.537,2.885-8.065,0.706-11.474c-5.895-9.219-21.867-10.883-31.579-9.558
	c-7.048,0.961-9.99,11.273-12.245,16.812c-1.672,4.103-3.156,8.281-4.58,12.475c-0.454,1.335-2.328,4.761-1.909,6.221
	c0.06,0.206,0.202,0.34,0.375,0.44c-2.36,0.815-4.688,1.74-6.974,2.698c-1.855-2.667-4.238-4.874-6.96-6.311
	c4.002-0.8,7.772-2.061,10.668-4.272c1.855-1.417,3.524-4.825,1.723-6.827c-1.89-2.101-6.113-1.67-8.593-1.539
	c-3.536,0.188-7.109,0.806-10.588,1.463c-7.152,1.352-14.417,1.847-21.33,4.275c-4.346,1.526-7.596,4.066-10.285,7.142
	c-0.825-17.017-11.212-35.47-27.474-41.65c8.534-2.899,14.063-10.783,16.168-19.238c2.383-9.572-0.363-18.932-1.857-28.368
	c-1.749-11.046-2.754-22.275-3.061-33.453c-0.263-9.591,1.082-18.515-1.476-27.956c-4.848-17.889-19.807-33.882-39.256-33.667
	c-3.538,0.04-6.998,0.758-10.362,1.792c-0.498,0.06-0.967,0.118-1.394,0.171c-15.036-3.069-29.638,0.238-37.896,14.137
	c-7.676,12.918-9.347,28.315-13.012,42.627c-2.446,9.554-7.144,20.552-15.821,25.867c-5.835,3.574-11.894,6.366-16.928,11.132
	c-12.689,12.014-15.096,37.76,1.508,47.513c0.538,0.316,1.096,0.591,1.664,0.842c-1.003,0.534-1.928,1.134-2.711,1.816
	c-0.195-0.021-0.411-0.019-0.66,0.031c-1.35,0.271-2.499,0.932-3.495,1.817c-0.52,0.461-1,0.979-1.438,1.547
	c-1.664,2.157-2.78,4.931-3.628,7.187c-3.153,8.39-4.842,17.299-6.229,26.127c-2.68,17.057-2.766,33.09-0.408,50.171
	c1.497,10.848,3.451,21.801,6.962,32.197c3.019,8.938,8.626,14.944,17.54,18.236c1.408,0.52,2.834,0.933,4.267,1.289
	c-0.002,0.015-0.009,0.028-0.009,0.043c0.002,3.715,0.049,7.411,0.615,11.089c0.106,0.691,3.025,0.049,2.898-0.776
	c-0.093-0.6-0.158-1.201-0.225-1.801c-0.292-2.638-0.368-5.284-0.383-7.939c11.968,2.089,24.481-0.948,35.476-5.702
	c20.093-8.688,39.729-18.516,59.301-28.304c7.782-3.892,15.536-7.839,23.246-11.873c-0.466,1.15-0.745,2.419-1.038,3.512
	c-1.273,4.756-2.036,9.665-2.785,14.525c-1.782,11.568-3.068,23.354-3.127,35.068c-0.003,0.518,0.515,0.704,1.113,0.676
	c0.816-0.038,1.782-0.477,1.785-1.034c0.007-1.266,0.04-2.531,0.077-3.797c0.007-0.238,0.007-0.476,0.015-0.714
	c0.548,0.342,1.098,0.648,1.646,0.937c9.485,4.983,19.189,2.188,27.693-3.182c3.908-2.467,7.563-5.474,10.826-8.521
	c2.977-2.78,5.789-5.732,8.512-8.77c3.799-4.238,7.42-8.646,11.024-13.027c5.079-6.172,10.009-12.941,16.323-17.93
	c0.641-0.506,0.285-0.786-0.334-0.873c0.006-0.018,0.017-0.035,0.021-0.052c5.218-2.174,10.286-4.61,14.878-7.964
	c1.592-1.163-0.79-2.047-1.898-1.237c-4.42,3.229-9.305,5.542-14.327,7.626c-5.855-4.582-10.768-10.18-15.695-15.724
	c2.846-0.335,5.63-1.603,8.032-3.404c1.682,8.211,19.28,10.807,25.441,11.43c3.144,0.318,6.871,1.941,9.976,0.667
	c1.455-0.597,2.396-2.323,3.072-4.332c4.529-1.736,8.639-5.823,11.242-9.798c1.066-1.63,2.033-3.831,1.184-5.741
	c-0.01-0.021-0.025-0.036-0.035-0.056c1.591-3.615,3.915-7.67,2.348-11.333C304.888,375.091,306.136,373.306,306.181,370.917z
	 M186.493,253.488c0.104,1.306,0.218,2.61,0.339,3.913l-0.339-1.736V253.488z M284.485,373.555c0.091,0.043,0.178,0.088,0.27,0.13
	c-0.201,0.006-0.404,0.01-0.605,0.021C284.267,373.654,284.378,373.604,284.485,373.555z M259.941,366.433L259.941,366.433
	c-0.044-0.158,1.016-2.943,1.255-3.674c1.131-3.453,2.348-6.876,3.627-10.276c2.139-5.683,4.595-14.632,9.607-18.541
	c1.598-1.246,6.172-0.687,7.947-0.63c2.951,0.095,5.879,0.607,8.742,1.296c5.133,1.235,10.305,3.61,13.572,7.88
	c2.217,2.896-0.362,8.64-1.32,11.627c-1.291,4.023-2.922,7.923-4.333,11.902c-0.536,1.512,2.356,1.341,2.746,0.242
	c0.687-1.938,1.409-3.86,2.127-5.785c0.342,2.627,0.174,5.231-0.741,7.775c-3.861-0.613-7.738-2.034-11.538-2.707
	c-1.438-0.255-3.13-0.518-4.741-0.445l0.768-0.598l7.5,1.5l5.5-21.5l-25-5.5l-10,26c0,0,5.848-0.972,8.376,0.486
	c-2.673-1.362-6.778-0.4-9.345,0.122c-1.611,0.328-3.209,0.753-4.793,1.235C259.946,366.688,259.958,366.552,259.941,366.433z
	 M273.068,369.981c-0.821,3.98-9.326,6.078-12.532,7.368c-1.817,0.731-3.829,1.471-5.584,2.531c-0.834-3.013-2.25-5.905-3.645-8.203
	C257.121,369.322,274.538,362.847,273.068,369.981z M116.201,288.281c5.478-11.046,7.514-23.04,7.605-35.276
	c0.001-0.187-0.302-0.265-0.712-0.257c4.657-3.236,8.367-7.439,11.385-12.152c0.821-1.11,1.472-2.165,1.834-3.081
	c1.83-3.279,3.384-6.735,4.729-10.237c1.364-3.551,4.424-6.996,6.851-9.846c1.486-1.747,3.161-3.314,5.019-4.659
	c0.389-0.281,0.768-0.501,1.142-0.692c2.303-0.215,4.602,0.267,6.396,0.847c0.865,0.72,1.653,1.639,2.355,2.655
	c0.531,0.769,3.188-0.356,2.898-0.776c-0.19-0.276-0.385-0.537-0.58-0.786c0.49-0.123,0.938-0.346,1.098-0.636
	c3.521-6.416,9.868-0.83,11.371,4.047c0.085,0.274,0.351,0.417,0.688,0.463c1.615,6.006,2.194,12.28,2.139,18.533
	c-1.261,12.654-3.248,23.734-4.569,30.29c-1.622,4.828-3.812,9.343-6.81,12.982c-3.544,4.3-9.386,5.028-14.49,6.111
	c-4.406,0.935-8.613,2.254-12.314,4.87c-7.846,5.545-11.075,16.802-10.236,25.943c0.03,0.327,0.471,0.44,1,0.4
	c0.393,1.575,0.844,3.138,1.162,4.631c1.433,6.733,2.746,13.493,3.803,20.296c1.108,7.133,1.159,14.288,1.934,21.446
	c0.117,1.081,0.223,2.451,0.444,3.818c-7.631-9.769-15.087-19.902-20.746-30.897c-3.391-6.588-6.322-13.417-9.188-20.245
	c-1.46-3.476-2.521-7.681-4.554-10.876c-0.111-0.175-0.301-0.254-0.521-0.283C109.853,300.034,113.347,294.037,116.201,288.281z
	 M87.183,314.3c-3.124,0.92-6.268,1.771-9.409,2.626c2.354-0.741,4.65-1.409,6.72-1.927C85.396,314.773,86.292,314.542,87.183,314.3
	z M174.164,423.798c-15.559,7.925-31.225,15.645-46.987,23.156c-10.854,5.172-21.934,11.215-33.459,14.788
	c-10.766,3.337-24.408,2.959-34.49-2.218c-9.878-5.072-12.661-16.052-15.063-26.004c-4.548-18.846-7.064-38.523-5.22-57.867
	c0.933-9.776,2.45-19.537,4.752-29.085c0.98-4.07,2.979-15.227,7.591-18.307c0.045,0.435,2.519,0.178,2.883-0.557
	c0.44-0.886,1.184-1.613,2.076-2.231c0.413-0.285,0.855-0.549,1.319-0.791c0.231,0.061,0.479,0.05,0.723-0.003
	c0.233-0.05,0.461-0.142,0.667-0.265c0.299-0.178,0.551-0.413,0.692-0.663c1.215-0.477,2.418-0.867,3.391-1.229
	c1.039-0.387,2.087-0.75,3.141-1.1c3.428-1.14,6.917-2.112,10.392-3.083c6.53-1.825,13.596-3.075,19.641-6.258
	c2.662-1.401,5.057-3.208,7.236-5.274c1.938,3.303,3.03,7.591,4.49,11.071c3.031,7.221,6.212,14.395,9.856,21.33
	c6.199,11.795,14.687,22.595,22.927,33.023c0.329,0.417,1.42,0.249,2.138-0.125c1.088,0.07,2.482-0.802,1.771-1.679
	c-1.738-2.143-1.707-6.608-1.98-9.136c-0.728-6.726-0.788-13.405-1.79-20.117c-0.964-6.462-2.248-12.878-3.587-19.272
	c-0.644-3.079-2.007-6.895-2.145-9.896c0.156-0.291,0.098-0.593-0.319-0.828c0.013-0.229,0.045-0.455,0.063-0.684
	c0.493,0.239,1.078,0.523,1.731,0.841c10.508,7.402,24.396,14.547,37.266,12.252c4.851,1.516,9.2,4.197,12.956,7.648
	c4.421,4.063,8.014,9.196,10.614,14.778c3.211,6.891,4.914,14.459,4.793,21.527c-0.002,0.127,0.032,0.231,0.084,0.322
	c-3.443,5.007-6.09,10.802-9.597,15.908c-2.903-11.301-7.91-21.889-14.177-31.732c-0.464-0.729-3.285,0.176-2.703,1.091
	c6.624,10.404,11.788,21.699,14.547,33.744c-0.299,0.36-0.605,0.714-0.919,1.062c-0.071,0.013-0.147,0.019-0.213,0.038
	c-12.744,3.598-25.337,7.625-37.992,11.506c-18.072,5.542-36.659,10.647-53.945,18.501c0.012-10.197,0.103-20.392-0.079-30.588
	c-0.181-10.203-0.131-20.877-2.388-30.883c-0.146-0.645-3.056,0.078-2.898,0.776c2.259,10.013,2.184,20.673,2.388,30.883
	c0.209,10.388,0.088,20.778,0.078,31.167c-1.797,0.857-3.584,1.735-5.348,2.661c-1.753,0.92-0.17,2.403,1.268,1.648
	c19.293-10.124,40.698-15.899,61.44-22.241c12.292-3.759,24.521-7.667,36.889-11.185c4.487,5.979,8.322,12.483,11.839,19.062
	c0.05,0.092,0.118,0.165,0.195,0.228c-0.272,0.083-0.512,0.203-0.664,0.365c-1.803,1.911-5.611,3.349-7.998,4.633
	C186.125,417.688,180.147,420.751,174.164,423.798z M233.513,396.644c0.076,0.054,0.155,0.092,0.232,0.144
	c-0.295,0.031-0.578,0.11-0.797,0.25c-1.73,1.109-3.517,2.185-5.332,3.249c1.679-2.033,3.198-4.292,4.871-6.301
	C232.1,394.904,232.45,395.89,233.513,396.644z M227.376,449.515c-6.594,7.172-15.452,15.937-25.13,18.75
	c-2.873,0.835-5.817,1.141-8.796,0.728c-2.759-0.383-5.547-1.371-8.335-3.15c-0.443-0.283-1.396-0.076-2.019,0.294
	c0.342-8.527,1.285-17.042,2.435-25.485c0.678-4.98,1.49-9.947,2.524-14.867c0.475-2.257,0.864-6.536,2.62-8.263
	c0.147-0.145,0.233-0.272,0.271-0.382c3.67-1.841,8.681-3.7,11.454-6.638c0.455-0.481,0.34-0.803-0.021-0.973
	c0.189-0.087,0.36-0.197,0.504-0.326c3.434,0.588,7.047,0.302,10.527-0.582c-7.531,4.737-14.496,10.173-19.102,17.812
	c-0.764,1.266,2.173,1.088,2.727,0.17c8.304-13.769,24.757-20.184,37.76-28.519c0.239-0.153,0.384-0.296,0.468-0.43
	c0.819,0.394,1.653,0.684,2.499,0.867c5.374,6.004,10.639,12.178,16.955,17.211c-0.413,0.601,0.365,1.271,1.303,1.25
	C244.975,425.994,236.964,439.085,227.376,449.515z M245.304,395.807c-1.68,0.897-3.455,1.267-5.232,1.068
	c-0.326-0.309-0.859-0.37-1.378-0.27c-0.409-0.117-0.817-0.254-1.224-0.436c-1.129-0.506-3.055-1.682-1.378-2.8
	c2.511-1.674,6.032-2.848,6.017-6.424c-0.006-1.269-2.421-0.934-2.848-0.002c-5.021,1.279-8.049,5.018-11.023,9.117
	c-5.511,7.593-15.162,13.414-24.932,11.068c-0.183-0.044-0.397-0.033-0.62,0.012c-3.229-5.986-6.747-11.883-10.78-17.371
	c-0.145-0.197-0.277-0.403-0.424-0.599c0.528-0.567,1.031-1.159,1.517-1.768c0.243-0.163,0.409-0.354,0.431-0.562
	c0.689-0.903,1.335-1.849,1.957-2.815c0.615-0.955,1.205-1.936,1.777-2.932c2.427-4.224,4.576-8.708,7.295-12.633
	c1.908-2.755,4.098-5.237,6.874-7.148c7.955-5.477,19.672-5.518,28.971-7.044c3.174-0.521,6.408-0.979,9.632-0.866
	c4.484,0.158,4.801,3.99,0.876,5.998c-3.349,1.714-7.244,2.608-11.222,3.187c-2.277-0.507-4.697-0.489-7.184,0.215
	c-0.527,0.15-0.833,0.415-0.985,0.695c-1.217,0.121-2.413,0.243-3.569,0.385c-1.578,0.193-2.255,2.292-0.277,2.049
	c3.559-0.437,7.774-0.678,11.961-1.241c3.327,1.101,6.228,3.671,8.444,6.888c-0.255,0.355,0.04,0.671,0.534,0.803
	c1.887,2.975,3.204,6.408,3.766,9.703c-0.014,0.015-0.028,0.027-0.041,0.042c-0.256,0.306-0.15,0.496,0.136,0.593
	c0.274,1.943,0.285,3.825-0.021,5.516C251.722,391.711,248.194,394.263,245.304,395.807z M233.662,392.659
	c1.451-1.536,3.061-2.821,5.01-3.574C237.645,390.733,235.297,391.492,233.662,392.659z M287.278,395.978
	c-0.256,0.785-3.052,10.742-3.27,10.715c-3.387-0.425-6.814-1.007-10.186-1.563c-5.958-0.982-21.807-3.871-21.296-12.329
	c0.354-0.382,0.694-0.773,1.015-1.176c2.205-2.778,2.498-6.313,1.846-9.837c1.16-0.878,3.732-1.938,6.702-3.164L259.659,383l-2,8
	l23.5,7.5l1.5-6.5l-0.14-0.279c1.812,1.465,4.023,2.612,6.131,3.575C288.011,395.417,287.384,395.657,287.278,395.978z
	 M279.609,383.513c0.36,0.189,0.723,0.353,1.074,0.487h-1.024C279.659,384,279.639,383.813,279.609,383.513z M288.892,400.761
	c0.446-1.827,0.764-3.625,1.107-4.861c0.108,0.047,0.221,0.098,0.328,0.145c1.165,0.507,3.367-1.165,1.688-1.896
	c-2.518-1.095-4.965-2.458-7.164-4.104c-0.853-0.637-1.879-1.455-2.227-2.502c-0.371-1.117,2.314-1.215,2.861-1.283
	c0.59-0.074,1.055-0.415,1.301-0.799c2.018,0.296,4.057,0.494,6.065,0.782c0.003,0.241,0.238,0.433,0.847,0.478
	C303.219,387.419,294.241,397.23,288.892,400.761z M298.73,385.766c-1.04-0.456-2.269-0.634-3.331-0.728
	c-5.074-0.662-13.908-0.441-16.049-5.429c-0.032-1.061-0.021-2.117,0.072-2.958c2.211-2.678,11.544-0.996,13.906-0.607
	c0.105,0.017,0.256,0.004,0.426-0.028c1.977,0.314,3.654,0.516,4.511,0.671c0.285,0.052,0.827-0.087,1.314-0.296
	c0.069,0.247,0.262,0.388,0.499,0.461C301.384,379.687,300.078,382.858,298.73,385.766z M265.983,283.166
	c5.586-0.034,11.173,0.013,16.758-0.085c5.29-0.093,11.174-1.143,14.25-5.875c2.193-3.374,2.268-8.167,2.393-12.03
	c0.145-4.531,0.008-9.567-2.434-13.539c-3.537-5.751-13.102-5.822-19.129-6.7c-0.055-0.229-0.305-0.409-0.859-0.455
	c-8.839-0.724-18.015,0.119-26.858,0.409c-7.757,0.254-16.327-0.135-23.519,3.272c-9.114,4.318-8.068,19.567-5.502,27.506
	c3.039,9.4,15.449,7.834,23.142,7.824c1.135,2.406-0.601,8.278-0.897,10.846c-0.066,0.577,2.115-0.079,2.291-0.173
	c3.738-2.009,7.472-4.028,11.199-6.057C259.502,286.648,263.46,285.239,265.983,283.166z M247.069,282.59
	c-0.133-0.246-0.52-0.295-0.97-0.237c0.196-0.392,0.048-0.734-0.79-0.733c-7.8,0.008-18.619,1.655-21.597-7.557
	c-1.694-5.241-1.453-11.586-0.604-16.951c0.874-5.523,4.349-7.89,9.502-9.061c6.572-1.493,13.6-1.19,20.292-1.398
	c7.584-0.236,15.415-0.917,22.992-0.296c0.209,0.017,0.433-0.022,0.65-0.094c4.22,0.627,8.527,1.116,12.561,2.501
	c4.754,1.633,6.482,5.854,7.128,10.489c0.81,5.816,0.759,13.178-2.104,18.45c-2.512,4.622-8.716,4.165-13.247,4.2
	c-5.377,0.041-12.873-1.498-17.628,1.284c-5.523,3.231-11.201,6.219-16.852,9.232C246.934,289.48,248.164,284.62,247.069,282.59z
	 M240.156,260.417c-2.921,0-5.298,2.376-5.298,5.298s2.377,5.298,5.298,5.298c2.922,0,5.299-2.377,5.299-5.298
	S243.078,260.417,240.156,260.417z M240.156,268.013c-1.267,0-2.298-1.031-2.298-2.298s1.031-2.298,2.298-2.298
	c1.268,0,2.299,1.031,2.299,2.298S241.424,268.013,240.156,268.013z M258.726,271.013c2.921,0,5.298-2.377,5.298-5.298
	s-2.377-5.298-5.298-5.298c-2.922,0-5.299,2.376-5.299,5.298S255.804,271.013,258.726,271.013z M258.726,263.417
	c1.267,0,2.298,1.031,2.298,2.298s-1.031,2.298-2.298,2.298c-1.268,0-2.299-1.031-2.299-2.298S257.458,263.417,258.726,263.417z
	 M277.716,271.013c2.921,0,5.297-2.377,5.297-5.298s-2.376-5.298-5.297-5.298s-5.297,2.376-5.297,5.298
	S274.795,271.013,277.716,271.013z M277.716,263.417c1.267,0,2.297,1.031,2.297,2.298s-1.03,2.298-2.297,2.298
	s-2.297-1.031-2.297-2.298S276.449,263.417,277.716,263.417z M555.163,304.521c-3.844-2.972-9.535-3.536-14.086-4.729
	c-0.41-0.107-1.396,0.206-2.021,0.547c-8.319-0.435-16.937,0.245-25.105,0.417c-7.163,0.151-15.162,0.173-20.613,5.636
	c-3.67,3.678-4.192,10.038-4.443,14.893c-0.421,8.144-0.657,16.981,1.634,24.898c1.594,5.505,5.45,7.577,9.988,8.345
	c0.011,0.148,0.217,0.254,0.753,0.261c0.528,0.006,1.058,0.018,1.587,0.026c2.159,0.177,4.405,0.158,6.588,0.142
	c6.536,0.164,13.083,0.335,19.599,0.053c0.312-0.013,0.626-0.048,0.937-0.1c0.013,0.004,0.035,0.007,0.073,0.007
	c2.671-0.013,5.343-0.018,8.014-0.032c4.466-0.024,9.342,0.391,13.648-1.081c4.101-1.401,6.409-4.283,7.735-8.349
	c2.62-8.029,2.09-17.792,1.538-26.063C560.631,314.042,559.66,307.997,555.163,304.521z M530.188,353.718
	c-0.983,0.263-1.725,0.168,0.184-0.031C530.312,353.7,530.248,353.702,530.188,353.718z M557.27,343.091
	c-1.006,5.595-3.491,9.778-9.498,10.348c-4.683,0.445-9.535,0.131-14.234,0.147c-0.989,0.003-2.093-0.112-3.087,0.087
	c-0.685,0.061-1.381,0.052-2.066,0.063c-5.193,0.08-10.388,0.001-15.582-0.095c-0.123-0.056-0.313-0.091-0.612-0.091
	c-1.218,0.002-2.435,0.017-3.635,0.014c-0.681-0.013-1.36-0.021-2.041-0.033c-5.776-0.196-10.869-1.419-13.087-8.124
	c-1.924-5.813-1.781-12.433-1.809-18.47c-0.029-6.283-0.158-14.088,3.511-19.565c4.313-6.438,14.896-5.177,21.479-5.29
	c8.703-0.149,18.006-1.003,26.66,0.158c0.117,0.016,0.283-0.004,0.469-0.046c2.865,0.683,5.714,1.496,8.188,3.005
	c4.252,2.593,5.319,7.917,5.924,12.471C558.939,325.896,558.737,334.934,557.27,343.091z M532.818,323.846
	c-2.874-2.355-6.198-4.218-9.347-6.2c-0.053-0.566-0.727-0.744-1.418-0.638c-1.139-0.003-2.66,1.05-1.613,1.763
	c-0.907,6.142-1.479,13.978,1.464,19.551c0.319,0.604,1.495,0.412,1.958,0.178c3.077-1.56,13.102-5.448,12.154-10.431
	C535.667,326.225,534.204,324.981,532.818,323.846z M524.138,336.172c-1.999-4.594-1.695-10.658-1.031-15.783
	c3.404,1.99,7.129,4.071,9.441,7.045C535.163,330.796,527.768,334.469,524.138,336.172z M425.565,381.078
	c-0.096-0.105-0.316-0.174-0.73-0.174c-19.441,0-38.883,0-58.324,0c-0.224,0-0.509,0.08-0.792,0.2
	c-0.128-0.71-2.887-0.199-2.887,0.825c0,19.441,0,38.883,0,58.324c0,0.447,0.936,0.473,1.744,0.22
	c0.106,0.383,0.493,0.688,1.228,0.688c19.441,0,38.883,0,58.324,0c0.531,0,0.945-0.219,1.203-0.517
	c0.822,0.143,2.422-0.359,2.422-1.168c0-19.441,0-38.883,0-58.324C427.753,380.579,426.423,380.64,425.565,381.078z
	 M424.854,439.041c-0.143-0.036-0.299-0.06-0.484-0.06c-19.441,0-38.883,0-58.324,0c-0.11,0-0.215,0.011-0.315,0.028
	c0-18.875,0-37.751,0-56.626c19.311,0,38.622,0,57.933,0c0.331,0,0.796-0.172,1.191-0.397
	C424.854,401.004,424.854,420.022,424.854,439.041z M418.948,387.607c-0.12-0.06-0.315-0.098-0.625-0.098
	c-15.063,0-30.126,0-45.188,0c-0.149,0-0.332,0.039-0.524,0.1c-0.512-0.764-2.797-0.189-2.797,0.695c0,15.063,0,30.126,0,45.189
	c0,0.717,0.939,0.828,1.75,0.607c0.102,0.014,0.217,0.023,0.364,0.023c15.063,0,30.126,0,45.188,0c0.224,0,0.547-0.09,0.867-0.221
	c0.529,0.375,2.785-0.104,2.785-0.97c0-15.063,0-30.126,0-45.189C420.769,387.339,419.773,387.341,418.948,387.607z M417.87,432.836
	c-14.906,0-29.813,0-44.72,0c-0.12,0-0.272,0.028-0.435,0.072c0-4.307,0-8.613,0-12.919c14.499,0,28.999,0,43.498,0
	c0.278,0,1.08-0.271,1.656-0.545C417.87,423.908,417.87,428.372,417.87,432.836z M417.87,418.875c-14.705,0-29.411,0-44.116,0
	c-0.187,0-0.607,0.122-1.038,0.285c0-2.079,0-4.157,0-6.236c0.254-0.076,0.497-0.189,0.702-0.328
	c-0.001,0.002-0.001,0.004-0.001,0.006c0.015-0.013,0.031-0.024,0.046-0.037c0.047-0.034,0.089-0.068,0.131-0.104
	c2.29-1.896,5.371-3.525,8.269-4.039c4.159-0.737,7.842,4.875,12.262,4.46c2.97-0.279,5.006-3.023,7.566-4.338
	c5.311-2.727,11.191-2.122,15.063,2.565c0.236,0.286,0.664,0.377,1.117,0.338C417.87,413.924,417.87,416.4,417.87,418.875z
	 M417.87,408.308c-6.266-5.533-15.691-3.514-21.963,1.643c-2.917,2.397-7.849-2.292-10.543-3.13
	c-1.486-0.462-3.01-0.505-4.528-0.089c-2.799,0.765-5.706,2.063-8.12,3.808c0-7.208,0-14.416,0-21.625c14.806,0,29.611,0,44.416,0
	c0.203,0,0.469-0.07,0.738-0.176C417.87,395.261,417.87,401.784,417.87,408.308z M395.824,395.388
	c-0.847-0.125-1.89,0.617-1.931,1.214c-1.994,0.067-3.836,1.036-4.504,3.184c-0.843,2.712,1.186,5.394,3.681,6.182
	c3.153,0.995,6.757-0.696,7.688-3.877C401.763,398.658,399.008,395.857,395.824,395.388z M394.793,404.2
	c-1.616-0.388-2.607-2.131-2.626-3.705c-0.021-1.91,0.934-2.317,2.571-1.744c0.537,0.188,1.387-0.105,1.894-0.52
	C398.73,400.355,398.333,405.049,394.793,404.2z M436.245,230.182c-1.193-3.439-2.971-4.955-6.704-5.143
	c-3.329-0.167-7.964-0.194-11.026,1.48c-0.585,0.118-1.152,0.343-1.334,0.664c-8.757,15.44-28.165,20.524-44.785,20.661
	c-0.891,0.007-3.146,1.369-1.205,1.353c17.064-0.141,37.266-5.24,47.355-20.066c2.998,11.034,3.283,22.917,3.143,34.269
	c-0.159,12.84-1.383,26.187-5.61,38.406c-6.162-8.825-15.87-12.741-26.207-14.434c-0.226-0.528-1.152-0.583-1.907-0.289
	c-5.412-0.745-10.945-0.936-16.186-0.951c-0.277-0.001-0.68,0.127-1.049,0.306c2.209-4.683,2.996-10.574,3.274-14.9
	c0.558-8.667-0.757-27.337-12.986-27.345c-0.278,0-0.915,0.227-1.447,0.487c0.168-0.471-0.995-0.696-1.866-0.312
	c-8.148,3.596-7.684,18.095-7.581,25.368c0.086,6.136,0.505,24.526,9.666,25.058c0.433,0.025,1.501-0.414,2.015-0.803
	c3.906-0.583,6.578-3.146,8.403-6.517c0.104,0.016,0.221,0.026,0.372,0.027c0.933,0.002,1.875,0.012,2.824,0.03
	c0.254,7.759-13.996,42.91,2.51,40.455c7.128-1.06,9.54-9.716,10.861-15.623c1.717-7.674,1.361-15.682,2.896-23.345
	c10.18,1.959,19.553,6.34,25.032,15.955c0.255,0.447,1.162,0.356,1.9,0.087c0.076-0.002,0.152-0.01,0.229-0.02
	c1.038,0.323,2.07,0.666,3.109,0.988c2.095,0.65,4.229,1.222,6.421,1.4c3.329,0.27,4.543-1.116,5.645-4.016
	c4.929-12.968,6.605-27.32,7.204-41.092C439.668,251.812,439.736,240.246,436.245,230.182z M369.428,282.597
	c-1.026,3.692-3.448,10.266-8.108,10.27c-0.26,0-0.666,0.123-1.042,0.292c-6.159-2.172-6.839-16.516-7.14-21.192
	c-0.348-5.408-0.1-10.881,0.822-16.222c0.521-3.015,1.56-8.98,4.776-10.445c-0.009,0.093,0.105,0.154,0.422,0.154
	c9.709,0.006,11.605,14.159,11.981,21.327C371.419,272.09,370.852,277.476,369.428,282.597z M384.983,305.779
	c-0.754,5.869-1.859,17.591-8.58,19.939c-8.479,2.963-4.751-13.351-4.063-16.923c1.306-6.786,4.229-14.19,4.011-21.182
	c3.485,0.132,7.027,0.407,10.512,0.927C385.66,294.148,385.712,300.103,384.983,305.779z M435.916,269.622
	c-0.811,10.788-2.617,21.607-5.985,31.902c-0.817,2.499-1.227,4.675-4.255,4.092c-1.999-0.384-3.95-1.069-5.885-1.693
	c-0.451-0.146-0.913-0.31-1.38-0.447c4.686-12.803,5.954-26.723,6.223-40.262c0.232-11.674-0.16-24.1-3.335-35.413
	c-0.107-0.383-0.4-0.601-0.759-0.693c3.305-1.541,10.367-1.237,12.002,1.932c1.515,2.938,2.128,6.38,2.676,9.604
	C436.943,248.805,436.685,259.388,435.916,269.622z M280.907,182.888c0.314-0.062,0.611-0.204,0.859-0.378
	c0.338,0.963,2.857,0.388,2.866-0.568c0.005-0.66,0.019-1.32,0.038-1.98c14.729,5.376,52.158,9.561,51.663-14.555
	c-0.014-0.65-0.715-0.841-1.425-0.745c3.538-4.188,4.132-9.525,2.452-14.997c-0.016-0.051-0.05-0.091-0.094-0.125
	c2.789-3.436,4.297-7.644,0.875-11.508c-4.104-4.634-11.64-4.46-17.321-2.957c0.088-7.626,2.553-26.885-10.768-23.027
	c-6.045,1.751-9.53,5.272-12.078,10.947c-3.721,8.287-5.674,16.919-15.188,20.295c-1.067-1.914-2.527-3.574-4.499-4.749
	c-4.601-2.74-10.697-1.118-15.343,0.52c-0.419,0.147-0.654,0.316-0.764,0.485c-0.547,0.18-1.001,0.496-1.005,0.86
	c-0.11,10.103-2.849,20.036-1.399,30.173C261.41,181.999,270.614,184.921,280.907,182.888z M283.726,144.346
	c5.08-1.755,9.23-4.889,11.886-9.629c3.034-5.416,4.28-11.746,7.851-16.859c2.258-3.233,7.609-6.376,11.316-3.821
	c2.001,1.38,2.596,4.289,2.99,6.51c0.898,5.067,0.197,10.314,0.152,15.418c-0.001,0.138,0.1,0.233,0.263,0.291
	c-0.482,0.796,0.142,1.823,1.462,1.383c5.081-1.695,11.208-2.168,15.598,1.449c5.251,4.327-0.853,10.641-4.434,13.376
	c-1.565,1.195,0.766,2.278,1.938,1.383c0.703-0.537,1.429-1.14,2.139-1.792c1.243,5.495,0.111,10.766-4.42,14.649
	c-0.631,0.54,2.095,0.243,2.625-0.211c0.112-0.096,0.211-0.197,0.319-0.295c-0.055,21.725-33.968,16.932-47.292,11.956
	c-0.368-0.137-0.914-0.031-1.384,0.188c0.426-9.613,1.969-19.205,0.198-28.79c-0.326-1.762-0.84-3.503-1.58-5.115
	C283.479,144.415,283.605,144.388,283.726,144.346z M264.063,140.383c0.021-0.006,0.04-0.01,0.06-0.017
	c24.371-8.589,18.04,26.816,17.625,40.908c-0.126,0.006-0.265,0.02-0.432,0.053C255.291,186.47,263.772,155.658,264.063,140.383z
	 M210.858,251.316c-7.311-35.177,2.89-79.126,40.33-92.085c1.245-0.431,3.031,0.361,1.102,1.029
	c-36.456,12.619-45.578,56.385-38.533,90.28C213.953,251.487,211.044,252.206,210.858,251.316z M352.206,149.006
	c17.521,10.345,36.479,18.578,56.236,23.563c14.85,3.747,31.149,6.69,46.402,3.646c1.752-0.35,2.211,1.203,0.418,1.561
	c-15.459,3.085-31.953,0.64-47.063-3.172c-20.487-5.169-40.099-13.4-58.285-24.139C348.677,149.733,351.335,148.492,352.206,149.006
	z M523.222,366.687c-22.217,24.39-54.239,35.427-85.396,43.291c-1.782,0.45-2.295-1.428-0.504-1.88
	c30.445-7.685,61.775-18.348,83.496-42.191C521.649,364.993,524.443,365.347,523.222,366.687z M228.356,292.396
	c7.277,19.072,15.645,37.757,27.743,54.311c0.783,1.071-2.007,2.11-2.674,1.197c-12.189-16.678-20.635-35.514-27.968-54.731
	C225.044,292.087,227.917,291.247,228.356,292.396z M354.396,423.133c-17.207-3.861-33.353-10.956-49.11-18.724
	c-1.382-0.681,1.2-2.123,2.252-1.604c15.581,7.681,31.546,14.654,48.558,18.471C357.833,421.666,355.557,423.394,354.396,423.133z
	 M562.411,299.162c-0.485,1.228-3.398,1.216-2.777-0.356c8.742-22.115,10.12-46.776,0.446-68.849
	c-3.115-7.107-7.124-13.942-12.238-19.808c-1.862-2.136-5.651-7.235-8.873-7.443c-1.961-0.127-0.444-2.241,0.992-2.148
	c3.49,0.226,6.991,4.396,9.135,6.739c5.372,5.873,9.734,12.704,13.019,19.948C572.587,250.342,571.643,275.809,562.411,299.162z" fill="#0984E3"></path>
</svg>