<svg width="285" height="96" viewBox="0 0 285 96" fill="none" xmlns="http://www.w3.org/2000/svg">
<path d="M26 68.88C39.68 68.88 47.84 58.88 47.84 50.16C47.84 49.52 47.68 49.2 47.36 49.2C47.04 49.2 46.56 49.52 45.84 50.4C41.44 55.84 35.36 59.76 28.32 59.76C17.2 59.76 11.2 50.08 11.2 37.36C11.2 25.28 16.56 12.24 26.88 12.24C35.6 12.24 36.24 21.68 36.24 27.28C36.24 30.48 37.84 33.44 41.28 33.44C45.04 33.44 46.64 30 46.64 26.08C46.64 16.64 37.44 10.72 26.64 10.72C10.88 10.72 1.2 23.36 1.2 39.6C1.2 55.04 9.92 68.88 26 68.88ZM74.1025 42.48C64.7425 43.12 50.2625 45.52 50.2625 57.6C50.2625 64.24 54.6625 68.88 61.0625 68.88C66.5025 68.88 71.1425 65.6 74.1025 61.44C74.1025 66.16 76.5025 69.12 80.8225 69.12C82.5825 69.12 88.1025 68.64 88.1025 66.96C88.1025 66.56 87.7025 66 86.8225 65.52C85.4625 64.72 84.3425 63.2 84.3425 60.72V43.2C84.3425 31.36 75.8625 26.96 67.6225 26.96C59.7025 26.96 51.8625 31.04 51.8625 37.36C51.8625 40.64 54.0225 43.28 57.4625 43.28C60.7425 43.28 63.0625 40.8 63.0625 37.68C63.0625 34.96 61.3025 32.64 58.6625 32.16C59.7025 29.68 62.9825 28.64 65.6225 28.64C71.0625 28.64 74.1025 32.96 74.1025 38.4V42.48ZM74.1025 59.92C72.1025 61.84 69.5425 63.36 66.7425 63.36C62.9025 63.36 60.6625 60.48 60.6625 56.32C60.6625 49.12 67.5425 45.04 74.1025 43.68V59.92ZM90.9125 59.04C90.9125 64.56 93.8725 69.12 99.8725 69.12C103.873 69.12 107.153 67.04 107.153 65.68C107.153 65.12 106.673 64.96 105.793 64.96C102.513 64.96 101.153 62.24 101.153 59.6V29.36H106.193C106.673 29.36 106.833 29.04 106.833 28.64C106.833 28.32 106.593 28 106.193 28H101.153V19.2C101.153 18.08 100.353 18 99.7125 19.2C97.0725 23.76 93.2325 27.12 87.1525 27.92C86.7525 28 86.5125 28.32 86.5125 28.64C86.5125 29.04 86.7525 29.36 87.1525 29.36H90.9125V59.04ZM125.479 68C127.559 68 128.039 66.88 126.599 65.52C125.079 64.08 123.639 62.8 123.639 60.4V8.48C123.639 7.27999 122.919 6.88 121.799 7.36L110.679 12.48C109.239 13.12 109.319 13.68 110.679 14.8C112.519 16.24 113.399 18.72 113.399 21.2V60.4C113.399 62.8 111.959 64.08 110.439 65.52C108.999 66.88 109.479 68 111.559 68H125.479ZM138.912 23.92C142.032 23.92 144.512 21.36 144.512 18.24C144.512 15.12 142.032 12.72 138.912 12.72C135.792 12.72 133.312 15.12 133.312 18.24C133.312 21.36 135.792 23.92 138.912 23.92ZM145.792 68C147.872 68 148.352 66.88 146.912 65.52C145.392 64.08 143.952 62.8 143.952 60.4V28.64C143.952 27.44 143.072 27.04 142.112 27.52L130.992 32.64C129.632 33.28 129.552 33.76 130.752 34.72C132.912 36.32 133.712 38.88 133.712 41.36V60.4C133.712 62.8 132.272 64.08 130.752 65.52C129.312 66.88 129.792 68 131.872 68H145.792ZM164.186 33.52C166.506 31.76 169.466 30.24 172.426 30.24C178.026 30.24 179.466 35.76 179.466 40.4V60.4C179.466 62.8 178.026 64.08 176.506 65.52C175.066 66.88 175.546 68 177.626 68H191.546C193.626 68 194.106 66.88 192.666 65.52C191.146 64.08 189.706 62.8 189.706 60.32V41.2C189.706 30.88 184.106 26.56 177.466 26.56C173.066 26.56 168.266 28.16 164.186 31.92V28.32C164.186 27.12 163.466 26.64 162.346 27.12L151.226 32.24C149.786 32.88 149.866 33.52 151.226 34.64C153.066 36.08 153.946 38.56 153.946 41.04V60.4C153.946 62.8 152.506 64.08 150.986 65.52C149.546 66.88 150.026 68 152.106 68H166.026C168.106 68 168.586 66.88 167.146 65.52C165.626 64.08 164.186 62.8 164.186 60.4V33.52ZM211.886 68C213.966 68 214.446 66.88 213.006 65.52C211.486 64.08 210.046 62.8 210.046 60.4V8.48C210.046 7.27999 209.326 6.88 208.206 7.36L197.086 12.48C195.646 13.12 195.726 13.68 197.086 14.8C198.926 16.24 199.806 18.72 199.806 21.2V60.4C199.806 62.8 198.366 64.08 196.846 65.52C195.406 66.88 195.886 68 197.966 68H211.886ZM225.246 67.04C225.646 67.6 226.446 68 227.166 68H238.926C240.606 68 240.846 67.28 239.486 66.32C237.166 64.72 235.166 63.6 233.166 60.88L218.046 40.8L219.166 39.68C224.846 34 230.206 32.8 236.846 29.36C238.366 28.56 238.206 28 236.526 28H222.606C221.566 28 220.926 28.24 220.926 29.04C220.926 29.68 221.406 30.32 221.406 31.36C221.406 33.6 219.406 36.48 217.646 38.32L210.126 46.16L225.246 67.04ZM261.483 69.44C260.523 71.68 259.323 74 256.603 74C254.523 74 253.723 72.24 251.083 72.24C248.043 72.24 245.563 74.72 245.563 77.76C245.563 81.12 248.203 83.52 251.723 83.52C256.203 83.52 258.203 79.68 260.443 74.64L277.883 35.2C279.163 32.32 280.443 30.64 282.123 29.68C283.163 29.04 282.923 28 281.723 28H276.603C275.003 28 274.843 28.64 276.203 29.84C277.643 31.04 277.243 33.36 276.443 35.2L267.483 55.36L258.683 35.2C257.883 33.36 257.483 31.04 258.923 29.84C260.283 28.64 260.123 28 258.523 28H243.883C242.683 28 242.443 29.04 243.483 29.68C245.163 30.64 246.443 32.32 247.723 35.2L262.043 68L261.483 69.44Z" fill="white"/>
</svg>
